<svg id="svg" xmlns="http://www.w3.org/2000/svg" xmlns:xlink="http://www.w3.org/1999/xlink" width="400" height="357.7167019027484" viewBox="0, 0, 400,357.7167019027484"><g id="svgg"><path id="path0" d="M209.937 0.583 C 210.751 0.796,212.082 0.796,212.896 0.583 C 213.710 0.370,213.044 0.196,211.416 0.196 C 209.789 0.196,209.123 0.370,209.937 0.583 M206.769 2.543 C 207.054 3.005,206.885 3.430,206.392 3.488 C 205.900 3.547,205.021 3.642,204.440 3.700 C 203.858 3.758,203.383 4.274,203.383 4.846 C 203.383 6.324,199.765 8.673,198.599 7.952 C 198.031 7.601,197.853 7.719,198.173 8.237 C 198.922 9.449,196.511 10.260,194.019 9.634 C 192.811 9.331,192.203 8.727,192.530 8.155 C 192.834 7.623,192.783 7.458,192.417 7.789 C 192.051 8.119,190.619 7.804,189.235 7.088 C 187.198 6.034,186.262 5.976,184.319 6.780 C 183.000 7.327,181.458 7.488,180.893 7.139 C 180.255 6.745,180.084 6.858,180.443 7.438 C 181.402 8.990,175.622 9.551,169.394 8.508 C 162.548 7.363,151.371 6.924,151.927 7.822 C 152.143 8.171,151.917 8.457,151.424 8.457 C 150.056 8.457,150.358 10.981,151.792 11.532 C 152.487 11.798,152.839 12.367,152.575 12.795 C 152.311 13.222,152.408 13.504,152.791 13.421 C 153.175 13.338,154.903 13.899,156.632 14.669 C 158.362 15.438,160.192 16.068,160.699 16.068 C 161.207 16.068,161.445 16.353,161.228 16.702 C 161.011 17.051,163.176 17.231,166.040 17.102 C 170.248 16.913,170.943 17.054,169.662 17.837 C 168.153 18.760,155.310 18.346,150.951 17.234 C 149.533 16.872,149.465 16.960,150.529 17.777 C 151.577 18.582,151.466 18.679,149.893 18.334 C 148.846 18.105,148.186 18.234,148.425 18.623 C 149.015 19.577,145.720 20.560,144.486 19.797 C 143.828 19.391,143.732 19.561,144.194 20.309 C 144.701 21.129,144.498 21.280,143.435 20.872 C 142.637 20.566,142.194 20.654,142.450 21.069 C 143.967 23.524,129.832 25.095,120.771 23.478 C 116.968 22.799,114.481 22.660,114.779 23.142 C 115.077 23.625,114.688 23.736,113.837 23.409 C 113.017 23.095,112.599 23.198,112.876 23.646 C 113.528 24.701,110.166 26.457,108.943 25.701 C 108.389 25.359,108.216 25.484,108.533 25.996 C 109.015 26.776,107.306 28.048,105.497 28.257 C 105.148 28.297,104.958 28.557,105.074 28.834 C 105.480 29.803,102.972 32.112,102.099 31.572 C 101.615 31.273,101.463 31.425,101.763 31.909 C 102.302 32.782,99.993 35.290,99.024 34.884 C 98.747 34.767,98.507 34.958,98.490 35.307 C 98.417 36.856,96.243 39.745,95.497 39.284 C 95.044 39.004,94.727 39.089,94.794 39.472 C 95.079 41.111,94.659 42.349,93.964 41.919 C 93.552 41.664,93.266 42.118,93.330 42.927 C 93.394 43.736,92.984 44.307,92.419 44.196 C 91.786 44.072,91.598 44.531,91.929 45.392 C 92.317 46.404,92.157 46.598,91.345 46.097 C 90.634 45.657,90.428 45.733,90.781 46.304 C 91.086 46.798,90.738 49.538,90.007 52.393 C 88.858 56.879,88.943 62.579,90.159 62.579 C 90.370 62.579,91.957 61.157,93.686 59.418 C 95.414 57.679,97.069 56.333,97.364 56.425 C 97.658 56.518,97.848 55.942,97.786 55.147 C 97.725 54.351,98.136 53.790,98.701 53.901 C 99.334 54.025,99.522 53.567,99.192 52.705 C 98.834 51.774,98.982 51.510,99.635 51.914 C 100.295 52.322,100.433 52.046,100.058 51.068 C 99.683 50.090,99.821 49.814,100.481 50.222 C 101.078 50.591,101.303 50.398,101.057 49.727 C 100.834 49.121,101.175 46.913,101.814 44.820 L 102.976 41.015 103.427 43.975 C 103.674 45.603,103.813 48.257,103.736 49.873 C 103.545 53.841,105.627 54.165,109.706 50.802 C 114.160 47.131,114.878 47.564,110.653 51.374 C 108.719 53.118,106.654 54.440,106.064 54.312 C 105.473 54.183,104.712 54.527,104.373 55.077 C 103.951 55.759,104.132 55.854,104.943 55.376 C 105.597 54.992,105.394 55.517,104.493 56.544 C 103.592 57.571,102.368 58.224,101.772 57.995 C 101.176 57.766,100.427 58.002,100.108 58.519 C 99.722 59.143,99.926 59.218,100.715 58.742 C 101.729 58.131,101.728 58.241,100.710 59.496 C 100.054 60.304,99.020 60.774,98.412 60.541 C 97.803 60.307,97.044 60.539,96.725 61.056 C 96.349 61.664,96.535 61.754,97.252 61.311 C 98.006 60.844,98.155 60.956,97.720 61.661 C 97.368 62.229,96.528 62.483,95.854 62.224 C 95.179 61.965,94.847 62.110,95.117 62.547 C 95.387 62.983,94.836 63.753,93.893 64.258 C 92.949 64.763,92.178 64.926,92.178 64.620 C 92.178 64.314,91.611 64.534,90.918 65.109 C 90.226 65.683,89.852 66.465,90.087 66.845 C 90.322 67.225,90.127 67.775,89.654 68.068 C 89.182 68.360,88.795 69.712,88.795 71.074 L 88.795 73.548 93.235 71.723 C 95.677 70.719,98.494 69.868,99.496 69.833 C 100.499 69.797,101.169 69.526,100.987 69.231 C 100.442 68.349,105.522 66.593,106.634 67.280 C 107.247 67.659,107.442 67.561,107.118 67.036 C 106.423 65.912,111.190 63.900,112.553 64.743 C 113.155 65.114,113.362 65.024,113.054 64.525 C 112.399 63.466,116.491 61.503,117.742 62.276 C 118.244 62.587,118.428 62.474,118.151 62.025 C 117.503 60.977,130.032 54.744,131.260 55.503 C 131.769 55.818,131.968 55.723,131.701 55.293 C 131.435 54.862,132.709 53.693,134.531 52.695 C 136.578 51.574,137.841 51.257,137.838 51.867 C 137.831 53.208,131.088 60.994,130.337 60.530 C 130.008 60.326,129.683 60.884,129.617 61.769 C 129.509 63.201,129.932 63.325,133.458 62.896 C 137.628 62.388,153.982 58.913,156.871 57.920 C 157.917 57.560,157.174 58.688,154.923 60.878 C 152.682 63.057,150.796 64.230,150.016 63.930 C 149.319 63.663,148.963 63.790,149.224 64.212 C 150.244 65.863,143.646 66.998,136.489 66.402 C 132.580 66.076,129.555 65.529,129.767 65.186 C 129.979 64.842,127.792 64.910,124.907 65.337 C 122.022 65.763,118.653 66.173,117.419 66.248 C 116.186 66.323,115.314 66.608,115.481 66.881 C 116.043 67.797,105.934 72.121,104.828 71.438 C 104.158 71.023,103.966 71.115,104.317 71.683 C 105.276 73.235,89.884 76.883,87.803 75.597 C 87.236 75.246,87.074 75.378,87.408 75.918 C 88.102 77.041,84.989 78.145,83.517 77.297 C 82.932 76.960,82.741 77.002,83.093 77.391 C 83.900 78.279,79.466 81.267,78.358 80.582 C 77.908 80.304,77.811 80.516,78.143 81.053 C 78.475 81.590,78.344 82.077,77.851 82.135 C 77.359 82.193,76.607 82.289,76.180 82.347 C 75.754 82.405,75.088 82.799,74.700 83.222 C 74.286 83.675,74.518 83.732,75.264 83.360 C 75.962 83.013,75.592 83.493,74.442 84.427 C 73.292 85.361,72.099 85.969,71.790 85.778 C 71.481 85.587,70.757 85.998,70.183 86.690 C 69.608 87.383,69.441 87.949,69.811 87.949 C 70.182 87.949,69.602 88.889,68.523 90.037 C 67.445 91.186,66.178 91.888,65.708 91.598 C 65.239 91.308,65.100 91.467,65.399 91.951 C 66.077 93.047,63.947 94.931,63.000 94.073 C 62.620 93.728,62.541 93.856,62.826 94.357 C 63.410 95.385,53.084 106.002,52.173 105.309 C 51.850 105.064,51.773 105.113,52.001 105.419 C 52.667 106.311,50.636 108.281,49.668 107.682 C 49.184 107.383,49.021 107.516,49.306 107.977 C 49.591 108.439,48.223 110.305,46.266 112.125 L 42.708 115.433 45.667 112.051 L 48.626 108.668 45.635 111.407 C 40.133 116.447,41.211 118.568,47.597 115.266 C 50.023 114.011,52.522 113.085,53.150 113.209 C 53.778 113.332,54.060 113.057,53.777 112.598 C 53.493 112.139,54.267 110.972,55.497 110.004 C 56.727 109.037,57.397 108.233,56.985 108.217 C 56.574 108.202,57.135 107.441,58.233 106.526 C 59.331 105.611,59.988 104.863,59.694 104.863 C 58.772 104.863,61.770 100.801,63.056 100.308 C 64.045 99.928,64.017 100.234,62.908 101.928 C 62.155 103.077,61.180 104.017,60.741 104.017 C 60.302 104.017,60.163 104.374,60.433 104.811 C 60.703 105.247,60.250 105.997,59.426 106.476 C 58.602 106.956,58.233 107.360,58.605 107.374 C 59.740 107.417,55.046 113.059,51.843 115.502 C 48.541 118.021,36.764 122.740,35.911 121.887 C 35.617 121.593,35.497 121.734,35.644 122.199 C 36.006 123.348,32.858 126.874,31.964 126.321 C 31.570 126.078,31.302 126.192,31.369 126.576 C 31.682 128.377,31.200 129.431,30.313 128.883 C 29.715 128.513,29.566 128.651,29.930 129.239 C 30.686 130.462,28.929 133.824,27.874 133.172 C 27.426 132.895,27.323 133.313,27.638 134.133 C 28.013 135.111,27.875 135.387,27.215 134.979 C 26.554 134.570,26.417 134.846,26.792 135.824 C 27.167 136.802,27.029 137.078,26.369 136.670 C 25.709 136.262,25.571 136.538,25.946 137.516 C 26.321 138.493,26.184 138.769,25.523 138.361 C 24.863 137.953,24.725 138.229,25.101 139.207 C 25.508 140.269,25.357 140.473,24.537 139.966 C 23.826 139.526,23.620 139.602,23.974 140.174 C 24.617 141.214,23.769 143.918,22.956 143.418 C 20.896 142.150,22.105 154.690,24.532 159.767 C 25.960 162.755,26.928 165.724,26.682 166.365 C 26.436 167.006,26.571 167.322,26.982 167.068 C 28.209 166.310,28.904 169.137,29.371 176.782 C 29.921 185.777,27.203 200.287,25.200 199.049 C 24.613 198.686,24.503 198.859,24.907 199.511 C 25.709 200.811,22.970 208.218,21.925 207.572 C 21.505 207.313,21.412 207.753,21.718 208.551 C 22.093 209.529,21.955 209.805,21.295 209.397 C 20.686 209.020,20.482 209.225,20.755 209.937 C 20.997 210.568,20.612 212.478,19.900 214.182 C 16.714 221.808,21.419 230.432,26.006 225.374 C 26.354 224.990,26.104 224.986,25.451 225.365 C 24.627 225.843,24.459 225.738,24.902 225.020 C 25.253 224.451,26.061 224.186,26.697 224.430 C 27.333 224.674,28.114 224.451,28.433 223.934 C 28.809 223.325,28.624 223.236,27.907 223.679 C 27.152 224.145,27.003 224.034,27.439 223.329 C 27.790 222.760,28.598 222.494,29.234 222.738 C 29.870 222.982,30.651 222.759,30.970 222.243 C 31.344 221.638,31.128 221.527,30.363 221.930 C 29.710 222.275,30.127 221.771,31.290 220.811 C 33.344 219.115,34.351 218.698,35.792 218.948 C 36.176 219.015,36.248 218.679,35.954 218.203 C 35.464 217.410,36.602 216.957,38.329 217.257 C 38.713 217.324,38.785 216.988,38.491 216.511 C 38.196 216.035,38.358 215.597,38.851 215.539 C 39.343 215.481,40.095 215.386,40.521 215.328 C 40.948 215.270,41.614 214.876,42.001 214.452 C 42.419 213.996,42.222 213.963,41.518 214.371 C 40.694 214.849,40.526 214.744,40.970 214.026 C 41.321 213.458,42.129 213.192,42.765 213.436 C 43.400 213.680,44.182 213.457,44.501 212.940 C 44.877 212.332,44.692 212.242,43.975 212.685 C 43.220 213.151,43.071 213.040,43.507 212.335 C 43.858 211.766,44.666 211.501,45.302 211.745 C 45.937 211.989,46.719 211.766,47.038 211.249 C 47.414 210.640,47.229 210.551,46.512 210.994 C 45.757 211.460,45.608 211.349,46.044 210.644 C 46.395 210.075,47.203 209.809,47.839 210.053 C 48.474 210.297,49.256 210.074,49.575 209.558 C 49.951 208.949,49.766 208.859,49.049 209.302 C 48.294 209.769,48.145 209.657,48.581 208.953 C 48.932 208.384,49.740 208.118,50.376 208.362 C 51.011 208.606,51.793 208.383,52.112 207.866 C 52.496 207.244,52.291 207.165,51.505 207.633 C 50.852 208.021,51.597 207.126,53.161 205.644 C 56.069 202.888,56.104 202.680,54.711 196.401 C 54.531 195.590,53.914 194.926,53.339 194.926 C 51.563 194.926,49.956 190.905,49.924 186.384 C 49.891 181.611,51.332 176.488,52.504 177.212 C 52.918 177.468,53.007 177.025,52.701 176.227 C 52.325 175.249,52.463 174.973,53.124 175.381 C 53.784 175.789,53.922 175.513,53.546 174.535 C 53.139 173.473,53.290 173.269,54.110 173.776 C 54.816 174.213,55.026 174.140,54.680 173.579 C 54.378 173.090,55.360 170.082,56.863 166.894 C 60.749 158.654,60.609 151.177,56.329 138.401 C 53.637 130.364,53.390 128.963,54.325 127.047 C 56.144 123.316,57.081 124.034,57.105 129.178 C 57.121 132.555,57.752 135.329,59.174 138.266 C 60.300 140.592,61.191 142.955,61.154 143.519 C 61.117 144.082,61.518 144.462,62.045 144.364 C 62.571 144.266,62.945 144.877,62.875 145.722 C 62.805 146.567,62.962 147.045,63.222 146.785 C 64.014 145.993,66.103 149.615,65.457 150.661 C 65.057 151.309,65.230 151.404,65.975 150.943 C 66.795 150.436,66.946 150.640,66.538 151.702 C 66.163 152.680,66.301 152.956,66.961 152.548 C 67.621 152.140,67.759 152.416,67.384 153.394 C 67.077 154.193,67.175 154.630,67.602 154.366 C 68.398 153.874,68.821 154.890,69.756 159.549 C 70.379 162.651,68.800 169.419,67.623 168.692 C 67.172 168.413,67.068 168.828,67.384 169.651 C 67.792 170.713,67.641 170.917,66.821 170.410 C 66.083 169.954,65.903 170.045,66.293 170.676 C 67.106 171.992,65.254 175.238,64.098 174.523 C 63.565 174.194,63.401 174.330,63.716 174.840 C 64.020 175.332,63.322 177.769,62.164 180.256 C 59.850 185.228,59.505 189.015,61.056 192.421 C 62.081 194.670,62.537 194.736,68.063 193.434 C 69.676 193.054,73.623 189.349,73.180 188.632 C 72.640 187.758,74.246 185.624,75.444 185.624 C 76.041 185.624,76.531 184.863,76.532 183.932 C 76.532 182.976,77.019 182.342,77.653 182.473 C 78.269 182.601,78.566 182.372,78.314 181.964 C 78.062 181.556,78.442 180.500,79.160 179.617 C 79.877 178.735,80.184 178.584,79.843 179.281 C 79.484 180.014,79.542 180.257,79.980 179.856 C 80.398 179.474,80.744 178.523,80.750 177.742 C 80.756 176.960,81.237 176.416,81.818 176.533 C 82.400 176.649,82.830 176.459,82.775 176.110 C 82.495 174.337,82.980 173.326,83.852 173.865 C 84.406 174.208,84.600 174.100,84.301 173.616 C 84.011 173.147,84.201 171.633,84.722 170.252 C 85.986 166.903,84.993 163.372,82.463 162.219 L 80.406 161.282 83.052 157.596 C 86.241 153.156,86.171 153.174,85.665 156.932 C 84.801 163.344,88.844 167.588,92.524 164.131 C 93.565 163.153,94.608 162.543,94.841 162.777 C 95.248 163.183,95.026 151.628,94.571 148.688 C 94.451 147.908,94.053 147.455,93.688 147.681 C 93.065 148.066,92.672 146.746,92.944 145.180 C 93.011 144.797,92.672 144.726,92.193 145.022 C 91.713 145.319,91.092 144.967,90.813 144.240 C 90.534 143.512,88.400 141.400,86.070 139.545 C 82.731 136.887,82.131 136.060,83.232 135.638 C 86.336 134.447,88.098 127.752,86.228 124.257 C 85.358 122.632,86.678 122.203,91.957 122.393 C 92.533 122.414,92.813 122.119,92.578 121.739 C 92.342 121.358,92.537 120.808,93.009 120.516 C 93.482 120.224,93.869 120.547,93.869 121.234 C 93.869 123.063,92.931 125.202,92.300 124.812 C 92.000 124.626,91.696 125.294,91.624 126.296 C 91.552 127.298,91.225 129.674,90.897 131.575 C 89.434 140.051,98.617 145.619,102.400 138.550 C 102.871 137.670,103.676 137.210,104.190 137.528 C 104.777 137.891,104.883 137.715,104.474 137.053 C 103.387 135.295,113.918 125.592,115.493 126.900 C 116.514 127.747,116.648 127.694,116.233 126.612 C 115.915 125.782,116.381 124.937,117.482 124.348 C 118.448 123.831,119.239 123.684,119.239 124.022 C 119.239 124.360,119.798 123.897,120.481 122.995 C 121.163 122.092,121.734 121.744,121.749 122.221 C 121.764 122.699,119.039 125.743,115.694 128.987 C 112.349 132.230,110.161 134.123,110.831 133.192 C 111.955 131.634,111.936 131.591,110.580 132.654 C 109.771 133.288,109.271 134.067,109.467 134.386 C 110.021 135.281,108.436 137.421,107.220 137.421 C 106.622 137.421,106.133 138.182,106.132 139.112 C 106.132 140.069,105.645 140.702,105.011 140.571 C 104.395 140.443,104.116 140.702,104.391 141.147 C 104.957 142.063,102.315 148.083,101.552 147.616 C 101.280 147.449,100.931 150.510,100.777 154.418 C 100.500 161.474,101.046 162.814,103.164 160.263 C 103.738 159.570,104.555 159.218,104.979 159.480 C 105.403 159.742,105.660 159.643,105.550 159.259 C 105.149 157.868,107.493 154.714,108.499 155.292 C 109.057 155.612,109.260 155.590,108.949 155.244 C 108.639 154.898,109.495 152.268,110.851 149.400 C 112.208 146.532,113.318 143.307,113.319 142.233 C 113.319 141.041,113.678 140.502,114.240 140.850 C 114.784 141.186,115.043 143.326,114.874 146.084 C 114.462 152.797,116.027 153.545,121.461 149.234 L 125.581 145.965 121.878 149.870 C 119.842 152.017,117.725 153.602,117.174 153.390 C 116.623 153.179,115.435 153.876,114.534 154.938 L 112.896 156.871 115.011 155.180 L 117.125 153.488 115.487 155.421 C 114.586 156.484,113.361 157.166,112.765 156.938 C 112.170 156.709,111.421 156.945,111.101 157.461 C 110.721 158.077,110.931 158.167,111.709 157.723 C 113.959 156.440,111.297 158.675,106.131 162.409 C 103.340 164.425,101.610 165.336,102.285 164.433 C 103.231 163.168,103.242 163.032,102.336 163.839 C 101.688 164.416,101.048 165.367,100.912 165.953 C 99.321 172.813,99.091 172.680,107.036 169.501 C 110.018 168.308,112.901 167.606,113.442 167.941 C 114.015 168.295,114.200 168.182,113.883 167.671 C 113.189 166.546,117.956 164.535,119.319 165.377 C 120.020 165.811,120.127 165.657,119.654 164.892 C 119.147 164.072,119.350 163.921,120.413 164.329 C 121.211 164.635,121.659 164.553,121.408 164.148 C 120.774 163.123,125.668 161.214,126.930 161.994 C 127.631 162.428,127.738 162.274,127.265 161.509 C 126.758 160.689,126.961 160.538,128.024 160.946 C 129.002 161.321,129.277 161.183,128.869 160.523 C 128.461 159.863,128.737 159.725,129.715 160.100 C 130.693 160.476,130.969 160.338,130.561 159.677 C 130.153 159.017,130.428 158.879,131.406 159.255 C 132.384 159.630,132.660 159.492,132.252 158.832 C 131.844 158.172,132.120 158.034,133.098 158.409 C 134.076 158.784,134.351 158.646,133.943 157.986 C 133.535 157.326,133.811 157.188,134.789 157.563 C 135.767 157.939,136.043 157.801,135.635 157.140 C 135.227 156.480,135.502 156.342,136.480 156.718 C 137.458 157.093,137.734 156.955,137.326 156.295 C 136.918 155.635,137.194 155.497,138.172 155.872 C 138.970 156.178,139.425 156.108,139.182 155.717 C 138.590 154.757,142.805 152.896,143.957 153.608 C 144.488 153.936,144.627 153.779,144.289 153.232 C 143.952 152.687,144.769 151.743,146.231 150.987 C 149.819 149.131,150.075 149.331,148.079 152.431 C 147.105 153.943,145.898 155.075,145.396 154.947 C 144.894 154.820,144.698 155.062,144.960 155.486 C 145.414 156.220,143.562 158.348,142.840 157.921 C 142.650 157.809,142.591 157.876,142.708 158.071 C 142.825 158.266,142.312 159.098,141.568 159.920 C 140.824 160.743,140.438 161.776,140.710 162.217 C 141.344 163.242,146.300 163.996,146.300 163.067 C 146.300 162.683,145.063 162.320,143.552 162.261 C 142.040 162.202,143.467 161.821,146.723 161.414 C 153.878 160.519,162.986 157.866,168.509 155.067 C 170.748 153.933,173.004 153.268,173.524 153.589 C 174.083 153.934,174.233 153.791,173.891 153.239 C 173.218 152.149,176.201 150.299,177.191 151.193 C 177.560 151.525,177.604 151.348,177.289 150.798 C 176.974 150.249,177.103 149.561,177.576 149.269 C 178.049 148.976,178.436 147.120,178.436 145.143 C 178.436 143.133,179.022 140.826,179.767 139.908 C 180.499 139.005,180.821 138.801,180.482 139.454 C 180.087 140.216,180.202 140.434,180.805 140.061 C 181.322 139.742,181.545 138.961,181.301 138.325 C 180.888 137.249,182.272 135.772,183.721 135.742 C 184.070 135.735,184.378 135.349,184.406 134.884 C 184.507 133.228,188.064 130.233,189.929 130.233 C 190.972 130.233,192.017 129.757,192.252 129.175 C 192.593 128.330,192.692 128.330,192.745 129.175 C 192.782 129.757,193.215 130.233,193.707 130.233 C 194.200 130.233,194.393 129.893,194.136 129.477 C 193.334 128.179,197.813 127.602,199.912 128.733 C 202.785 130.281,206.576 135.091,205.850 136.266 C 205.482 136.861,205.600 137.034,206.144 136.698 C 207.251 136.014,209.244 141.594,208.543 143.419 C 208.228 144.240,208.400 144.483,209.022 144.098 C 209.682 143.690,209.839 144.082,209.514 145.323 C 209.252 146.327,209.342 146.960,209.715 146.729 C 210.576 146.197,211.585 148.725,210.934 149.780 C 210.665 150.215,210.759 150.477,211.142 150.363 C 211.526 150.249,213.150 151.371,214.751 152.856 C 218.445 156.282,218.868 155.820,216.551 150.891 C 214.152 145.787,214.557 145.599,218.638 149.920 C 220.480 151.871,221.226 152.901,220.296 152.209 C 218.732 151.046,218.691 151.062,219.758 152.422 C 220.392 153.231,221.208 153.709,221.572 153.484 C 221.936 153.259,222.958 153.739,223.842 154.550 C 224.726 155.361,224.861 155.645,224.141 155.180 C 223.014 154.451,222.988 154.532,223.952 155.764 C 224.567 156.550,225.553 157.008,226.142 156.782 C 227.241 156.361,228.975 157.898,229.104 159.408 C 229.143 159.873,229.461 160.270,229.810 160.289 C 231.740 160.397,236.141 163.743,240.803 168.647 C 243.709 171.705,246.491 174.207,246.984 174.207 C 247.477 174.207,247.679 174.533,247.433 174.931 C 247.187 175.329,247.880 175.483,248.972 175.274 C 250.375 175.006,251.797 175.685,253.809 177.583 C 255.377 179.061,256.089 179.987,255.391 179.640 C 254.645 179.269,254.413 179.327,254.827 179.780 C 255.215 180.203,255.786 180.582,256.096 180.621 C 256.406 180.660,257.731 181.135,259.040 181.678 C 262.387 183.064,262.855 183.013,277.427 179.650 C 284.609 177.993,291.152 176.580,291.966 176.510 C 293.606 176.371,293.912 175.441,292.587 174.621 C 292.114 174.329,291.985 173.641,292.299 173.092 C 292.614 172.542,292.578 172.358,292.218 172.681 C 291.859 173.004,289.610 172.167,287.220 170.820 C 282.002 167.879,274.354 165.776,268.533 165.682 L 264.271 165.613 267.205 164.335 C 270.443 162.925,274.286 163.234,281.071 165.452 C 283.576 166.271,284.789 167.043,284.171 167.425 C 283.415 167.892,283.461 168.169,284.355 168.512 C 286.083 169.175,285.887 166.568,284.028 164.171 C 283.174 163.070,282.667 161.860,282.901 161.481 C 283.134 161.103,282.880 160.518,282.336 160.181 C 281.679 159.776,281.553 159.970,281.962 160.757 C 282.301 161.411,281.991 161.223,281.274 160.341 C 280.556 159.458,280.176 158.402,280.428 157.994 C 280.680 157.586,280.383 157.357,279.767 157.484 C 279.151 157.612,278.642 157.078,278.636 156.296 C 278.630 155.515,278.284 154.564,277.866 154.182 C 277.427 153.781,277.373 154.023,277.739 154.757 C 278.087 155.455,277.583 155.074,276.621 153.911 C 275.659 152.748,275.041 151.326,275.249 150.750 C 275.456 150.174,275.164 149.794,274.600 149.904 C 274.035 150.015,273.625 149.444,273.689 148.635 C 273.753 147.826,273.486 147.361,273.097 147.601 C 272.104 148.215,270.407 144.781,271.127 143.615 C 271.484 143.039,271.343 142.889,270.776 143.240 C 270.211 143.589,269.141 142.468,268.109 140.444 C 265.857 136.030,265.929 135.668,268.710 137.433 C 272.303 139.712,275.677 143.096,275.171 143.914 C 274.921 144.319,275.220 144.546,275.836 144.418 C 276.452 144.291,276.960 144.825,276.966 145.606 C 276.972 146.387,277.319 147.339,277.736 147.720 C 278.176 148.122,278.229 147.880,277.863 147.146 C 277.516 146.448,278.019 146.829,278.981 147.992 C 279.944 149.154,280.561 150.577,280.354 151.153 C 280.146 151.728,280.438 152.109,281.003 151.998 C 281.568 151.888,281.973 152.488,281.903 153.333 C 281.833 154.178,281.989 154.656,282.250 154.396 C 283.062 153.584,285.121 157.238,284.480 158.352 C 284.146 158.933,284.185 159.125,284.567 158.779 C 285.474 157.957,287.785 161.265,287.090 162.390 C 286.796 162.866,287.059 163.151,287.675 163.023 C 288.291 162.895,288.745 163.442,288.683 164.237 C 288.621 165.033,289.002 165.604,289.529 165.506 C 290.055 165.408,290.487 166.089,290.487 167.019 C 290.488 167.949,290.908 168.710,291.421 168.710 C 291.934 168.710,293.442 170.042,294.773 171.670 C 296.946 174.329,296.980 174.458,295.108 172.939 L 293.023 171.247 294.639 173.155 C 295.528 174.205,296.434 174.884,296.653 174.665 C 297.425 173.893,300.251 175.995,299.682 176.917 C 299.364 177.431,299.472 177.624,299.922 177.346 C 300.979 176.693,305.496 179.635,304.684 180.447 C 304.345 180.785,304.785 180.787,305.661 180.451 C 306.855 179.993,307.081 180.120,306.562 180.959 C 306.099 181.708,306.196 181.878,306.854 181.471 C 308.237 180.617,311.349 181.747,310.664 182.855 C 310.317 183.417,310.495 183.525,311.125 183.136 C 312.387 182.356,317.281 184.265,316.647 185.289 C 316.396 185.695,316.747 185.814,317.427 185.553 C 318.999 184.950,324.110 187.543,323.451 188.610 C 323.179 189.050,323.509 189.198,324.183 188.939 C 324.858 188.680,325.698 188.933,326.049 189.502 C 326.485 190.207,326.336 190.318,325.581 189.852 C 324.843 189.396,324.678 189.498,325.086 190.158 C 325.423 190.703,326.069 190.919,326.523 190.639 C 327.585 189.982,329.941 191.915,329.315 192.929 C 329.053 193.353,329.342 193.595,329.958 193.467 C 330.574 193.339,331.028 193.886,330.966 194.681 C 330.905 195.477,331.281 196.048,331.803 195.950 C 332.325 195.852,333.120 197.008,333.570 198.520 C 334.546 201.800,335.386 202.034,335.931 199.180 C 336.151 198.031,336.046 197.267,335.697 197.483 C 334.830 198.019,333.846 193.807,334.566 192.642 C 334.884 192.127,334.764 191.940,334.299 192.228 C 333.465 192.743,329.188 184.659,329.598 183.342 C 329.715 182.969,329.334 182.759,328.753 182.875 C 328.171 182.992,327.744 182.447,327.803 181.666 C 327.862 180.884,326.721 179.171,325.266 177.860 L 322.622 175.476 325.153 178.436 C 327.577 181.269,327.532 181.253,324.096 178.052 C 320.533 174.734,319.610 173.553,321.484 174.711 C 322.093 175.088,322.230 174.942,321.848 174.324 C 321.512 173.779,320.938 173.518,320.574 173.743 C 320.209 173.969,319.189 173.566,318.306 172.849 C 317.424 172.132,317.273 171.824,317.970 172.166 C 318.716 172.531,318.948 172.470,318.534 172.017 C 318.147 171.594,317.481 171.200,317.054 171.142 C 316.628 171.084,315.876 170.988,315.383 170.930 C 314.891 170.872,314.673 170.526,314.899 170.160 C 315.124 169.795,314.671 169.441,313.891 169.374 C 308.745 168.932,301.146 165.143,303.201 164.043 C 305.675 162.719,305.848 161.815,303.754 161.150 C 301.693 160.496,296.197 154.757,297.631 154.757 C 299.693 154.757,311.262 160.747,310.762 161.556 C 310.492 161.992,310.767 162.169,311.373 161.950 C 311.978 161.731,313.425 162.340,314.588 163.302 C 315.751 164.264,316.167 164.770,315.514 164.425 C 314.724 164.008,314.531 164.129,314.938 164.788 C 315.275 165.333,315.921 165.549,316.375 165.269 C 317.501 164.572,319.775 166.575,319.099 167.668 C 318.789 168.170,318.962 168.297,319.501 167.964 C 320.839 167.137,329.326 175.475,328.502 176.808 C 328.086 177.480,328.206 177.636,328.839 177.244 C 329.389 176.904,330.045 177.219,330.329 177.959 C 330.608 178.686,331.303 179.281,331.874 179.281 C 333.128 179.281,332.245 171.519,330.094 163.636 C 329.333 160.846,328.672 157.742,328.626 156.740 C 328.579 155.738,328.191 155.135,327.763 155.399 C 327.319 155.674,327.248 155.196,327.597 154.287 C 327.933 153.411,327.931 152.971,327.592 153.310 C 326.899 154.003,323.790 149.683,324.341 148.792 C 324.721 148.176,322.200 145.607,321.136 145.526 C 320.784 145.499,318.691 144.564,316.485 143.448 C 314.279 142.332,309.239 140.776,305.285 139.992 C 294.042 137.760,291.641 137.020,292.283 135.982 C 292.634 135.413,292.475 135.284,291.878 135.653 C 290.594 136.447,287.360 135.415,287.981 134.410 C 288.245 133.982,287.809 133.885,287.009 134.191 C 286.031 134.567,285.755 134.429,286.163 133.769 C 286.571 133.108,286.295 132.971,285.317 133.346 C 284.404 133.696,284.071 133.571,284.419 133.009 C 284.733 132.500,284.337 132.165,283.500 132.231 C 282.691 132.295,282.120 131.885,282.231 131.320 C 282.342 130.755,281.927 130.487,281.309 130.724 C 280.692 130.961,279.650 130.472,278.994 129.637 C 277.881 128.220,277.914 128.203,279.493 129.387 C 281.059 130.561,281.099 130.546,280.031 129.185 C 279.397 128.376,278.597 127.888,278.253 128.101 C 277.333 128.669,274.419 126.324,274.419 125.015 C 274.419 124.396,274.038 123.884,273.573 123.877 C 271.904 123.852,270.507 122.428,270.969 121.224 C 271.228 120.549,271.106 120.203,270.699 120.454 C 269.665 121.093,267.808 118.665,268.489 117.564 C 268.796 117.067,268.544 116.765,267.928 116.892 C 267.308 117.021,266.859 116.467,266.924 115.654 C 266.989 114.817,266.654 114.421,266.146 114.736 C 265.583 115.083,265.458 114.750,265.809 113.837 C 266.184 112.859,266.046 112.583,265.386 112.991 C 264.725 113.399,264.588 113.123,264.963 112.146 C 265.338 111.168,265.200 110.892,264.540 111.300 C 263.880 111.708,263.742 111.432,264.117 110.454 C 264.423 109.656,264.329 109.216,263.908 109.476 C 262.795 110.165,260.700 103.132,259.191 93.642 C 257.679 84.135,256.763 81.723,253.965 79.890 C 252.859 79.166,252.216 78.150,252.535 77.633 C 252.879 77.076,252.731 76.932,252.171 77.278 C 251.639 77.607,249.128 75.845,246.420 73.243 C 240.090 67.160,230.288 66.107,219.143 70.313 C 217.348 70.990,217.194 70.871,217.628 69.142 C 218.598 65.277,217.412 64.831,207.485 65.330 C 202.438 65.584,197.643 66.061,196.829 66.390 C 194.751 67.230,194.853 63.826,197.012 60.284 C 198.065 58.558,198.351 57.370,197.797 57.028 C 197.317 56.731,197.137 55.936,197.396 55.262 C 197.655 54.587,197.501 54.260,197.055 54.536 C 196.088 55.134,194.954 51.217,195.731 49.960 C 196.459 48.781,199.648 50.761,198.964 51.966 C 198.687 52.455,198.760 52.584,199.126 52.254 C 200.044 51.426,204.825 54.003,204.212 54.995 C 203.931 55.450,204.342 55.555,205.169 55.238 C 206.147 54.862,206.423 55.000,206.014 55.661 C 205.606 56.321,205.882 56.459,206.860 56.083 C 207.838 55.708,208.114 55.846,207.706 56.506 C 207.330 57.114,207.532 57.320,208.239 57.049 C 208.865 56.809,211.073 57.233,213.145 57.992 C 215.330 58.792,221.116 59.602,226.914 59.919 L 236.914 60.465 236.412 57.957 C 235.943 55.615,235.990 55.559,237.119 57.102 C 237.784 58.011,238.143 59.054,237.917 59.420 C 237.691 59.785,237.820 60.012,238.204 59.925 C 239.220 59.693,246.228 63.020,248.203 64.672 C 249.133 65.451,249.323 65.808,248.626 65.466 C 247.880 65.101,247.648 65.162,248.062 65.615 C 248.450 66.038,249.020 66.389,249.331 66.395 C 250.850 66.421,255.318 68.779,254.956 69.364 C 254.729 69.732,255.221 69.855,256.049 69.639 C 260.632 68.440,264.693 73.412,264.693 80.221 C 264.693 83.705,265.606 84.567,269.300 84.567 C 271.500 84.567,275.930 87.717,275.259 88.804 C 274.454 90.106,276.962 91.159,282.709 91.931 C 285.283 92.277,313.024 87.565,314.497 86.532 C 314.679 86.404,314.397 85.779,313.870 85.143 C 313.343 84.508,313.193 83.706,313.538 83.361 C 313.883 83.016,313.784 82.811,313.319 82.905 C 311.639 83.244,310.269 82.860,310.695 82.171 C 310.935 81.783,310.672 81.434,310.111 81.395 C 309.550 81.356,306.617 80.279,303.594 79.003 C 299.752 77.381,296.101 76.562,291.465 76.283 C 287.541 76.047,285.289 75.602,285.949 75.194 C 286.563 74.814,288.787 74.662,290.890 74.855 C 294.063 75.147,294.282 75.085,292.178 74.490 L 289.641 73.773 292.178 73.683 C 294.357 73.606,297.638 74.343,305.708 76.722 C 307.345 77.205,307.350 77.165,305.884 75.503 C 305.051 74.558,304.480 73.279,304.616 72.660 C 304.752 72.042,304.292 71.517,303.594 71.495 C 302.896 71.473,302.321 70.816,302.315 70.036 C 302.309 69.256,301.962 68.306,301.545 67.924 C 301.106 67.523,301.048 67.766,301.407 68.499 C 301.749 69.197,301.441 69.045,300.724 68.163 C 300.007 67.280,299.626 66.225,299.879 65.816 C 300.131 65.408,299.833 65.179,299.217 65.307 C 298.601 65.435,298.092 64.900,298.086 64.119 C 298.081 63.338,297.734 62.386,297.317 62.005 C 296.874 61.600,296.845 61.807,297.247 62.499 C 297.725 63.323,297.619 63.491,296.902 63.047 C 296.333 62.696,296.070 61.880,296.318 61.235 C 296.565 60.590,296.306 60.153,295.741 60.264 C 295.177 60.375,294.772 59.774,294.841 58.929 C 294.911 58.084,294.755 57.606,294.494 57.866 C 293.702 58.658,291.613 55.036,292.259 53.990 C 292.660 53.342,292.486 53.248,291.742 53.708 C 290.922 54.215,290.771 54.011,291.179 52.949 C 291.496 52.123,291.391 51.711,290.935 51.992 C 290.044 52.543,287.120 47.481,287.887 46.715 C 288.154 46.448,288.372 46.696,288.372 47.266 C 288.372 47.836,288.726 48.084,289.159 47.816 C 289.592 47.549,290.222 47.775,290.558 48.320 C 290.966 48.980,290.801 49.082,290.063 48.626 C 289.325 48.170,289.160 48.272,289.568 48.932 C 289.905 49.476,290.559 49.688,291.021 49.402 C 292.141 48.710,295.244 51.575,294.564 52.675 C 294.271 53.150,294.439 53.286,294.939 52.977 C 296.013 52.313,299.559 56.509,298.869 57.626 C 298.608 58.048,298.898 58.288,299.514 58.160 C 300.130 58.033,300.584 58.579,300.522 59.375 C 300.461 60.171,300.841 60.741,301.368 60.643 C 301.895 60.545,302.273 61.127,302.210 61.936 C 302.144 62.772,302.479 63.168,302.988 62.854 C 303.543 62.511,303.679 62.830,303.345 63.699 C 303.015 64.560,303.203 65.019,303.836 64.895 C 304.401 64.784,304.810 65.355,304.747 66.164 C 304.681 67.001,305.016 67.397,305.525 67.083 C 306.080 66.739,306.216 67.059,305.882 67.927 C 305.552 68.789,305.740 69.247,306.373 69.123 C 306.938 69.012,307.347 69.584,307.284 70.393 C 307.218 71.229,307.553 71.625,308.062 71.311 C 308.617 70.967,308.753 71.287,308.419 72.156 C 308.089 73.017,308.277 73.475,308.910 73.351 C 309.475 73.241,309.884 73.812,309.821 74.621 C 309.757 75.430,310.023 75.895,310.412 75.654 C 311.330 75.087,313.027 78.234,312.232 79.029 C 311.900 79.362,312.008 79.510,312.474 79.360 C 312.939 79.209,315.159 80.932,317.409 83.189 C 319.658 85.446,320.990 86.999,320.368 86.640 C 319.705 86.256,319.530 86.304,319.944 86.757 C 320.331 87.180,320.933 87.526,321.281 87.526 C 323.040 87.526,330.523 91.708,330.071 92.438 C 329.767 92.931,329.977 93.019,330.576 92.650 C 331.939 91.807,336.706 93.819,336.011 94.943 C 335.687 95.468,335.882 95.566,336.495 95.187 C 337.757 94.407,342.651 96.315,342.017 97.340 C 341.766 97.746,342.068 97.884,342.686 97.646 C 343.305 97.409,344.562 97.822,345.479 98.564 C 346.396 99.307,346.611 99.637,345.958 99.298 C 345.170 98.889,344.977 99.015,345.382 99.672 C 345.719 100.216,346.377 100.425,346.844 100.137 C 347.962 99.446,351.899 103.167,351.217 104.271 C 350.918 104.755,351.112 104.863,351.666 104.521 C 352.553 103.973,353.035 105.027,352.722 106.828 C 352.655 107.212,352.954 107.307,353.385 107.041 C 353.816 106.774,354.625 107.792,355.183 109.303 C 355.775 110.908,356.375 111.585,356.625 110.932 C 356.860 110.317,356.230 107.556,355.224 104.797 C 354.217 102.037,353.664 99.342,353.995 98.808 C 354.356 98.223,354.223 98.066,353.661 98.413 C 352.505 99.128,350.653 95.882,351.466 94.566 C 351.819 93.994,351.682 93.840,351.124 94.185 C 350.611 94.502,349.778 93.990,349.273 93.047 C 348.768 92.104,348.605 91.332,348.911 91.332 C 349.217 91.332,348.997 90.765,348.422 90.073 C 347.847 89.380,347.090 88.991,346.740 89.207 C 346.390 89.424,345.423 88.849,344.591 87.929 C 343.759 87.010,343.386 86.258,343.763 86.258 C 344.140 86.258,343.773 85.512,342.948 84.600 C 342.123 83.688,341.208 82.972,340.914 83.009 C 339.115 83.233,338.241 82.747,338.775 81.818 C 339.109 81.237,339.084 81.031,338.718 81.362 C 337.711 82.269,333.040 79.577,333.718 78.480 C 334.072 77.908,333.914 77.778,333.315 78.148 C 332.133 78.879,328.774 77.947,329.333 77.044 C 329.549 76.694,329.079 76.408,328.288 76.409 C 327.497 76.411,325.708 76.333,324.313 76.238 L 321.776 76.065 324.101 74.623 C 326.817 72.939,327.011 72.181,324.896 71.509 C 323.188 70.968,317.456 65.348,318.028 64.778 C 318.766 64.042,329.953 69.782,329.254 70.537 C 328.839 70.985,328.976 71.057,329.581 70.710 C 330.883 69.961,334.259 71.685,333.595 72.760 C 333.325 73.196,333.652 73.343,334.321 73.087 C 335.058 72.804,336.269 73.646,337.390 75.221 C 338.408 76.651,339.531 77.642,339.885 77.424 C 340.967 76.754,344.254 79.539,343.642 80.608 C 343.327 81.157,343.387 81.318,343.776 80.965 C 344.714 80.114,348.513 83.723,347.835 84.820 C 347.544 85.291,347.726 85.415,348.241 85.096 C 349.331 84.423,351.181 87.406,350.287 88.396 C 349.955 88.765,350.132 88.809,350.682 88.494 C 351.231 88.179,351.919 88.308,352.211 88.781 C 352.503 89.254,353.024 89.641,353.368 89.641 C 354.372 89.641,353.370 83.481,352.035 81.443 C 351.364 80.419,350.846 79.276,350.883 78.903 C 350.921 78.530,350.476 78.223,349.894 78.222 C 349.313 78.221,348.833 77.569,348.827 76.774 C 348.822 75.980,348.270 74.839,347.600 74.240 C 346.543 73.295,346.538 73.374,347.560 74.841 C 348.661 76.421,348.612 76.416,346.830 74.763 C 345.780 73.789,344.840 72.457,344.741 71.803 C 344.458 69.929,343.293 68.429,342.501 68.918 C 341.701 69.413,338.068 64.751,338.735 64.084 C 338.965 63.854,338.573 63.185,337.864 62.596 C 337.155 62.008,336.575 61.822,336.575 62.184 C 336.575 62.546,335.823 62.161,334.904 61.329 C 333.984 60.497,333.475 59.391,333.771 58.872 C 334.067 58.353,333.998 58.210,333.617 58.555 C 332.670 59.413,330.541 57.529,331.218 56.433 C 331.517 55.949,331.378 55.790,330.909 56.080 C 330.440 56.370,329.173 55.668,328.094 54.519 C 327.015 53.371,326.465 52.431,326.872 52.431 C 327.698 52.431,325.835 50.359,324.905 50.244 C 324.579 50.204,323.742 49.952,323.044 49.685 C 322.347 49.418,319.873 48.762,317.548 48.227 C 311.327 46.797,304.190 43.371,304.932 42.171 C 305.325 41.535,305.181 41.402,304.534 41.802 C 302.937 42.789,292.006 33.780,292.950 32.255 C 293.212 31.829,292.766 30.962,291.957 30.328 C 290.678 29.326,290.596 29.346,291.332 30.484 C 291.797 31.203,291.514 31.069,290.702 30.184 C 289.891 29.300,289.443 28.226,289.708 27.798 C 289.973 27.370,289.685 27.124,289.069 27.252 C 288.450 27.380,288.001 26.827,288.065 26.013 C 288.129 25.204,287.844 24.751,287.431 25.006 C 287.018 25.261,286.681 25.075,286.681 24.591 C 286.681 22.896,280.065 20.296,275.753 20.296 C 271.154 20.296,261.842 17.261,262.613 16.013 C 262.875 15.589,262.538 15.453,261.863 15.712 C 261.188 15.971,260.349 15.718,259.997 15.149 C 259.562 14.444,259.711 14.333,260.465 14.799 C 261.203 15.255,261.368 15.153,260.960 14.493 C 260.624 13.949,259.997 13.720,259.568 13.985 C 259.139 14.250,257.816 13.496,256.628 12.308 C 254.137 9.816,253.700 9.679,253.700 11.387 C 253.700 12.068,252.964 13.019,252.064 13.501 C 249.024 15.128,242.121 14.316,243.264 12.466 C 243.566 11.977,243.451 11.802,243.008 12.076 C 241.940 12.736,239.756 11.340,239.708 9.967 C 239.687 9.369,239.232 8.968,238.697 9.075 C 238.163 9.183,236.956 8.191,236.016 6.870 C 233.712 3.635,204.800 -0.643,206.769 2.543 M87.868 41.112 C 86.887 42.294,86.950 42.437,88.329 42.169 C 89.206 41.999,90.082 41.385,90.275 40.803 C 90.778 39.295,89.210 39.496,87.868 41.112 M78.655 48.616 C 78.080 49.309,77.315 49.694,76.956 49.471 C 76.596 49.249,75.831 49.634,75.257 50.326 C 74.682 51.019,74.515 51.586,74.885 51.586 C 75.256 51.586,74.676 52.525,73.597 53.674 C 72.519 54.822,71.361 55.592,71.026 55.385 C 70.320 54.948,67.803 57.523,67.714 58.774 C 67.680 59.239,67.273 59.619,66.808 59.619 C 66.342 59.619,66.057 59.865,66.173 60.165 C 66.510 61.034,63.317 64.222,62.306 64.026 C 61.801 63.928,61.370 64.292,61.349 64.834 C 61.277 66.698,57.441 71.095,56.405 70.501 C 55.848 70.181,55.663 70.220,55.996 70.589 C 56.820 71.501,55.082 74.589,54.090 73.976 C 53.642 73.699,53.539 74.117,53.853 74.936 C 54.204 75.849,54.079 76.183,53.516 75.835 C 53.008 75.521,52.672 75.917,52.738 76.753 C 52.802 77.562,52.392 78.134,51.827 78.023 C 51.194 77.899,51.006 78.357,51.337 79.219 C 51.694 80.150,51.546 80.414,50.893 80.010 C 50.233 79.602,50.095 79.878,50.471 80.856 C 50.778 81.658,50.680 82.093,50.249 81.828 C 49.083 81.111,48.789 91.803,49.917 93.911 C 50.885 95.720,51.306 95.757,56.853 94.523 C 58.674 94.118,62.658 90.452,62.157 89.642 C 61.954 89.313,62.375 88.322,63.092 87.440 C 63.809 86.557,64.117 86.406,63.775 87.104 C 63.416 87.837,63.474 88.079,63.913 87.678 C 64.330 87.296,64.677 86.345,64.683 85.564 C 64.689 84.743,65.229 84.263,65.962 84.426 C 66.660 84.581,66.958 84.436,66.626 84.103 C 65.770 83.247,67.565 80.184,68.562 80.800 C 69.016 81.080,69.332 80.996,69.265 80.613 C 68.943 78.754,69.436 77.754,70.402 78.310 C 70.983 78.644,71.187 78.617,70.854 78.248 C 70.030 77.336,71.768 74.248,72.760 74.862 C 73.208 75.139,73.311 74.721,72.997 73.901 C 72.680 73.076,72.785 72.663,73.238 72.943 C 75.462 74.318,73.945 65.761,71.639 63.923 L 69.283 62.044 71.851 58.813 L 74.419 55.581 74.553 59.715 C 74.626 61.988,74.650 64.609,74.606 65.539 C 74.562 66.469,74.719 66.768,74.955 66.204 C 75.279 65.431,75.761 65.412,76.904 66.126 C 80.659 68.471,84.138 63.679,84.158 56.135 C 84.166 53.247,83.936 51.030,83.647 51.208 C 83.359 51.387,82.695 50.593,82.171 49.445 C 81.080 47.049,80.139 46.828,78.655 48.616 M72.460 58.985 C 72.258 59.334,72.399 60.381,72.774 61.311 C 73.368 62.787,73.462 62.707,73.514 60.677 C 73.572 58.382,73.177 57.747,72.460 58.985 M206.958 64.035 C 208.459 64.222,211.123 64.225,212.878 64.042 C 214.632 63.859,213.404 63.706,210.148 63.702 C 206.892 63.699,205.457 63.848,206.958 64.035 M265.870 90.324 C 267.536 96.081,268.069 99.116,267.560 99.939 C 267.212 100.502,267.346 100.663,267.885 100.330 C 268.993 99.645,270.123 102.757,269.269 104.140 C 268.862 104.797,269.032 104.894,269.780 104.432 C 270.601 103.925,270.751 104.128,270.344 105.191 C 269.968 106.169,270.106 106.444,270.767 106.036 C 271.427 105.628,271.565 105.904,271.189 106.882 C 270.875 107.702,270.978 108.120,271.426 107.843 C 272.426 107.225,274.257 110.522,273.549 111.666 C 273.261 112.133,273.528 112.411,274.144 112.283 C 274.760 112.155,275.269 112.690,275.275 113.471 C 275.281 114.252,275.627 115.203,276.045 115.585 C 276.484 115.987,276.538 115.745,276.172 115.011 C 275.825 114.313,276.305 114.683,277.239 115.833 C 278.173 116.982,278.792 118.159,278.614 118.447 C 278.255 119.027,284.015 124.861,284.614 124.524 C 285.608 123.965,286.720 124.411,286.245 125.180 C 285.950 125.656,286.023 125.946,286.406 125.824 C 287.442 125.494,292.631 127.805,292.255 128.428 C 291.106 130.333,300.136 129.205,301.393 127.287 C 302.645 125.375,302.992 118.994,301.804 119.724 C 300.905 120.277,298.326 116.855,298.919 115.896 C 299.229 115.394,299.843 115.206,300.284 115.478 C 300.724 115.750,300.860 116.337,300.585 116.781 C 300.310 117.226,300.407 117.485,300.799 117.357 C 301.676 117.071,306.226 120.553,305.684 121.096 C 305.470 121.310,315.619 121.579,328.238 121.694 L 351.182 121.903 350.562 119.937 C 350.221 118.855,349.897 117.332,349.842 116.551 C 349.788 115.770,349.539 115.167,349.290 115.212 C 348.444 115.361,338.688 105.432,338.922 104.659 C 339.049 104.237,338.848 104.080,338.475 104.311 C 338.102 104.541,336.856 103.966,335.706 103.032 C 334.556 102.098,334.150 101.615,334.803 101.960 C 335.593 102.377,335.786 102.255,335.379 101.597 C 335.042 101.052,334.469 100.791,334.104 101.016 C 333.740 101.241,332.720 100.839,331.837 100.122 C 330.955 99.404,330.767 99.095,331.420 99.434 C 332.208 99.842,332.402 99.716,331.996 99.060 C 331.660 98.515,331.082 98.257,330.712 98.485 C 330.342 98.714,328.561 98.188,326.753 97.317 C 318.091 93.141,310.045 93.005,296.406 96.803 C 286.645 99.521,277.694 99.317,279.486 96.417 C 279.794 95.919,279.416 95.805,278.552 96.136 C 277.639 96.487,277.306 96.362,277.653 95.799 C 277.968 95.291,277.572 94.956,276.735 95.021 C 275.922 95.086,275.368 94.637,275.497 94.017 C 275.624 93.402,275.340 93.138,274.864 93.432 C 273.768 94.109,270.406 91.821,271.253 90.974 C 271.599 90.628,271.501 90.422,271.036 90.516 C 269.387 90.849,267.982 90.477,268.390 89.816 C 268.618 89.448,268.051 89.089,267.131 89.020 C 265.932 88.930,265.574 89.300,265.870 90.324 M38.901 95.610 C 38.901 96.103,38.563 96.297,38.150 96.042 C 37.738 95.787,37.452 96.240,37.516 97.049 C 37.580 97.858,37.170 98.430,36.605 98.319 C 35.972 98.195,35.784 98.653,36.115 99.515 C 36.448 100.383,36.313 100.703,35.757 100.359 C 35.249 100.045,34.913 100.441,34.979 101.278 C 35.043 102.087,34.633 102.658,34.068 102.547 C 33.435 102.423,33.247 102.882,33.578 103.743 C 33.935 104.674,33.787 104.938,33.134 104.535 C 32.474 104.127,32.336 104.402,32.712 105.380 C 33.119 106.443,32.968 106.646,32.148 106.139 C 31.404 105.679,31.230 105.774,31.631 106.422 C 32.342 107.572,30.147 111.049,29.266 110.168 C 28.935 109.837,28.938 110.282,29.274 111.158 C 29.697 112.259,29.583 112.564,28.906 112.146 C 28.246 111.738,28.108 112.013,28.483 112.991 C 28.839 113.918,28.711 114.239,28.130 113.880 C 27.554 113.524,27.378 113.925,27.652 114.971 C 28.065 116.554,28.179 116.563,30.284 115.183 C 31.494 114.391,32.691 113.742,32.944 113.742 C 33.197 113.742,33.313 113.471,33.203 113.139 C 32.971 112.443,39.564 106.977,40.637 106.977 C 41.031 106.977,41.829 106.501,42.410 105.920 C 42.992 105.338,43.142 104.863,42.744 104.863 C 42.347 104.863,42.705 104.107,43.541 103.183 C 45.011 101.559,44.987 101.392,42.814 98.109 C 40.656 94.848,38.901 93.727,38.901 95.610 M361.809 96.824 C 361.545 97.088,362.043 100.784,362.915 105.038 C 363.788 109.291,364.310 113.561,364.077 114.525 C 363.843 115.490,363.883 115.766,364.165 115.139 C 364.490 114.416,365.261 115.300,366.269 117.550 C 367.143 119.503,367.641 121.453,367.376 121.882 C 367.111 122.312,367.207 122.565,367.590 122.445 C 368.448 122.176,372.889 126.563,372.426 127.221 C 372.243 127.482,372.332 127.520,372.623 127.306 C 373.507 126.658,378.105 129.400,377.574 130.259 C 377.302 130.699,377.640 130.844,378.326 130.580 C 379.012 130.317,379.789 129.541,380.052 128.855 C 380.359 128.054,380.180 127.824,379.551 128.213 C 378.890 128.621,378.753 128.345,379.128 127.368 C 379.434 126.569,379.353 126.122,378.947 126.372 C 377.922 127.006,376.014 122.112,376.793 120.851 C 377.227 120.149,377.073 120.043,376.308 120.515 C 375.488 121.022,375.337 120.819,375.745 119.757 C 376.120 118.779,375.983 118.503,375.322 118.911 C 374.662 119.319,374.524 119.043,374.899 118.065 C 375.275 117.087,375.137 116.812,374.477 117.220 C 373.816 117.628,373.679 117.352,374.054 116.374 C 374.429 115.396,374.291 115.120,373.631 115.528 C 372.971 115.936,372.833 115.660,373.208 114.683 C 373.583 113.705,373.446 113.429,372.785 113.837 C 372.125 114.245,371.987 113.969,372.362 112.991 C 372.669 112.193,372.613 111.729,372.239 111.961 C 371.241 112.577,368.507 107.567,369.215 106.422 C 369.615 105.774,369.442 105.679,368.697 106.139 C 367.886 106.641,367.725 106.447,368.113 105.434 C 368.444 104.573,368.256 104.114,367.623 104.238 C 367.058 104.349,366.648 103.778,366.712 102.969 C 366.778 102.132,366.443 101.736,365.934 102.051 C 365.372 102.398,365.247 102.065,365.597 101.152 C 365.913 100.330,365.809 99.914,365.358 100.193 C 364.920 100.463,364.051 99.708,363.425 98.514 C 362.800 97.321,362.073 96.560,361.809 96.824 M295.454 110.004 C 296.684 110.972,297.438 112.172,297.129 112.672 C 296.809 113.190,296.962 113.337,297.485 113.013 C 298.601 112.324,299.675 113.825,298.930 115.032 C 298.611 115.547,297.046 114.831,295.070 113.266 C 293.242 111.818,291.998 110.228,292.304 109.732 C 292.611 109.236,292.499 109.054,292.056 109.327 C 291.614 109.601,290.699 109.475,290.023 109.048 C 289.094 108.460,289.333 108.268,291.006 108.258 C 292.223 108.251,294.224 109.037,295.454 110.004 M48.626 115.856 C 47.230 116.780,46.522 117.539,47.052 117.542 C 47.976 117.547,52.454 114.245,51.586 114.199 C 51.353 114.186,50.021 114.932,48.626 115.856 M282.083 121.142 L 284.567 123.890 281.818 121.406 C 279.256 119.091,278.681 118.393,279.334 118.393 C 279.480 118.393,280.717 119.630,282.083 121.142 M315.829 123.460 C 312.093 123.788,308.185 124.512,307.144 125.069 C 306.102 125.627,304.894 125.862,304.459 125.594 C 303.608 125.068,300.544 129.156,301.256 129.867 C 301.491 130.103,306.395 130.694,312.153 131.182 C 323.091 132.108,333.779 134.914,333.414 136.763 C 333.290 137.389,333.751 137.576,334.610 137.247 C 335.622 136.858,335.816 137.019,335.315 137.831 C 334.895 138.510,334.952 138.747,335.461 138.432 C 336.703 137.665,340.143 140.370,339.629 141.710 C 339.385 142.344,339.609 143.125,340.125 143.444 C 340.694 143.796,340.827 143.639,340.461 143.048 C 340.129 142.511,340.090 142.072,340.374 142.072 C 341.525 142.072,343.340 148.200,343.340 152.087 C 343.340 157.919,342.461 161.965,341.504 160.533 C 341.019 159.807,340.933 160.192,341.264 161.620 C 341.545 162.837,341.346 165.428,340.820 167.379 C 337.362 180.223,343.197 209.373,350.419 215.326 C 351.875 216.526,352.495 217.218,351.797 216.864 C 351.049 216.484,350.818 216.535,351.233 216.989 C 351.621 217.413,352.287 217.807,352.713 217.865 C 353.140 217.923,353.891 218.018,354.384 218.076 C 354.877 218.134,355.047 218.558,354.763 219.018 C 354.456 219.514,354.835 219.628,355.697 219.297 C 356.675 218.922,356.951 219.060,356.543 219.720 C 356.135 220.380,356.411 220.518,357.389 220.143 C 358.367 219.767,358.642 219.905,358.234 220.565 C 357.826 221.226,358.102 221.364,359.080 220.988 C 360.058 220.613,360.334 220.751,359.926 221.411 C 359.539 222.036,359.764 222.221,360.544 221.921 C 362.281 221.255,372.305 226.456,371.572 227.643 C 371.201 228.243,371.370 228.354,372.031 227.945 C 373.299 227.161,378.194 231.580,377.429 232.818 C 377.141 233.284,377.302 233.420,377.786 233.121 C 378.981 232.382,380.851 234.769,380.069 236.034 C 379.693 236.642,379.801 236.827,380.337 236.495 C 381.537 235.753,383.087 240.409,383.087 244.758 C 383.087 251.010,386.332 253.663,389.629 250.106 C 391.824 247.737,392.722 244.346,394.845 230.408 C 395.770 224.342,396.927 218.323,397.417 217.034 C 399.582 211.340,398.213 193.337,394.821 182.895 C 393.880 179.999,393.387 177.182,393.726 176.634 C 394.140 175.963,393.975 175.864,393.222 176.329 C 392.402 176.836,392.251 176.633,392.658 175.570 C 393.034 174.593,392.896 174.317,392.236 174.725 C 391.575 175.133,391.438 174.857,391.813 173.879 C 392.127 173.059,392.024 172.641,391.576 172.918 C 390.576 173.536,388.746 170.239,389.453 169.095 C 389.742 168.628,389.474 168.350,388.858 168.478 C 388.238 168.607,387.790 168.053,387.854 167.240 C 387.918 166.431,387.651 165.966,387.262 166.206 C 386.329 166.783,384.661 163.631,385.442 162.766 C 385.774 162.398,385.590 162.359,385.032 162.679 C 384.133 163.194,381.708 160.141,382.098 158.985 C 382.177 158.753,381.868 158.562,381.412 158.562 C 380.222 158.562,377.957 155.094,378.677 154.375 C 379.009 154.042,378.710 153.897,378.013 154.052 C 377.310 154.208,376.848 153.834,376.977 153.214 C 377.104 152.598,376.848 152.317,376.407 152.590 C 375.553 153.117,371.853 148.513,372.561 147.805 C 372.791 147.575,372.304 146.857,371.479 146.209 C 370.085 145.115,370.067 145.151,371.233 146.723 C 372.471 148.394,372.464 148.395,370.618 146.821 C 369.591 145.945,368.990 144.840,369.284 144.365 C 369.577 143.890,369.429 143.742,368.954 144.035 C 368.479 144.329,367.374 143.728,366.498 142.701 C 364.925 140.856,364.926 140.848,366.596 142.086 C 368.160 143.246,368.201 143.230,367.135 141.870 C 366.501 141.061,365.721 140.560,365.403 140.757 C 364.507 141.310,362.368 139.726,362.368 138.509 C 362.368 137.910,361.892 137.373,361.311 137.315 C 360.729 137.257,359.851 137.162,359.358 137.104 C 358.866 137.045,358.704 136.608,358.998 136.131 C 359.293 135.655,359.192 135.369,358.775 135.497 C 357.746 135.812,347.561 130.929,347.946 130.306 C 348.115 130.033,347.433 129.761,346.431 129.701 C 342.652 129.476,321.963 123.633,323.530 123.233 C 325.658 122.690,324.076 122.737,315.829 123.460 M7.770 170.613 C 3.640 188.608,2.308 197.407,1.978 208.879 C 1.811 214.693,1.450 224.778,1.176 231.290 C 0.576 245.572,1.693 245.754,3.772 231.712 C 5.711 218.617,6.786 214.349,7.784 215.786 C 8.329 216.570,8.414 216.363,8.063 215.108 C 7.518 213.156,9.150 208.686,10.176 209.320 C 10.521 209.533,10.751 209.045,10.687 208.236 C 10.623 207.427,11.033 206.856,11.597 206.967 C 12.230 207.091,12.419 206.632,12.088 205.771 C 11.700 204.758,11.860 204.564,12.672 205.066 C 13.417 205.526,13.590 205.431,13.189 204.783 C 12.479 203.633,14.673 200.156,15.554 201.037 C 15.886 201.368,15.882 200.923,15.546 200.047 C 15.088 198.853,15.215 198.627,16.055 199.146 C 16.769 199.588,16.972 199.510,16.614 198.931 C 16.306 198.432,16.624 195.833,17.321 193.155 C 18.369 189.132,18.417 187.320,17.594 182.727 C 17.046 179.669,16.603 175.920,16.609 174.395 C 16.615 172.871,16.366 172.033,16.056 172.534 C 15.535 173.378,11.831 162.413,11.837 160.042 C 11.847 156.036,10.034 160.748,7.770 170.613 M135.105 162.966 C 136.157 163.168,137.679 163.161,138.488 162.949 C 139.296 162.737,138.436 162.572,136.575 162.581 C 134.715 162.591,134.053 162.764,135.105 162.966 M128.133 164.929 C 128.720 165.879,125.419 166.857,124.190 166.097 C 123.532 165.691,123.436 165.861,123.898 166.609 C 124.405 167.429,124.202 167.580,123.139 167.172 C 122.341 166.866,121.886 166.936,122.128 167.328 C 122.721 168.287,118.506 170.148,117.354 169.436 C 116.822 169.107,116.684 169.266,117.024 169.816 C 117.398 170.422,116.007 171.194,113.138 171.972 C 103.680 174.537,97.024 175.857,96.179 175.335 C 95.628 174.995,95.558 175.210,95.991 175.912 C 96.498 176.732,96.295 176.882,95.232 176.475 C 94.254 176.099,93.979 176.237,94.387 176.898 C 94.790 177.550,94.526 177.698,93.595 177.341 C 92.734 177.011,92.275 177.199,92.399 177.832 C 92.510 178.396,91.949 178.808,91.154 178.746 C 90.358 178.685,89.787 179.065,89.885 179.592 C 89.983 180.119,89.412 180.554,88.616 180.559 C 87.820 180.565,86.678 181.117,86.079 181.787 C 85.168 182.806,85.204 182.873,86.298 182.200 C 87.018 181.758,86.661 182.228,85.505 183.245 C 84.349 184.263,83.016 185.024,82.543 184.936 C 82.071 184.849,81.649 185.349,81.607 186.047 C 81.564 186.744,81.071 187.220,80.511 187.104 C 79.951 186.987,79.588 187.351,79.704 187.911 C 79.820 188.471,79.440 188.947,78.858 188.968 C 78.277 188.989,77.896 189.233,78.013 189.511 C 78.419 190.480,75.911 192.788,75.038 192.249 C 74.554 191.950,74.390 192.081,74.674 192.541 C 74.958 193.001,73.495 195.042,71.422 197.076 C 69.349 199.111,67.653 200.431,67.653 200.010 C 67.653 199.590,66.336 200.522,64.726 202.082 C 63.117 203.643,61.955 205.170,62.144 205.477 C 62.334 205.783,57.562 210.950,51.540 216.959 C 45.519 222.967,40.592 227.522,40.592 227.081 C 40.592 226.640,38.706 228.137,36.402 230.407 C 34.097 232.677,32.367 234.786,32.557 235.093 C 32.747 235.401,31.303 237.364,29.348 239.455 C 27.393 241.546,26.364 242.467,27.061 241.501 C 28.320 239.760,28.315 239.758,26.447 241.339 C 25.411 242.215,24.720 243.185,24.911 243.494 C 25.456 244.375,23.858 246.512,22.654 246.512 C 22.056 246.512,21.566 247.273,21.566 248.203 C 21.565 249.133,21.134 249.814,20.607 249.716 C 20.080 249.618,19.700 250.189,19.761 250.985 C 19.823 251.780,19.411 252.341,18.847 252.230 C 18.214 252.106,18.025 252.564,18.356 253.426 C 18.713 254.357,18.565 254.621,17.912 254.217 C 17.252 253.809,17.114 254.085,17.490 255.063 C 17.798 255.866,17.699 256.299,17.268 256.033 C 16.841 255.769,16.438 256.373,16.374 257.375 C 16.250 259.319,15.474 264.061,12.203 282.875 C 9.575 297.992,9.615 300.218,12.679 309.785 L 15.211 317.688 19.656 317.325 C 25.497 316.849,27.457 318.781,28.650 326.192 C 30.395 337.037,36.537 344.040,39.986 339.117 C 40.635 338.190,41.479 337.714,41.860 338.060 C 42.242 338.406,42.274 338.202,41.931 337.607 C 41.553 336.952,42.334 335.355,43.909 333.561 L 46.512 330.597 46.512 336.929 C 46.512 344.429,47.567 347.181,50.885 348.338 C 52.233 348.808,53.126 348.854,52.871 348.441 C 52.407 347.692,55.614 346.220,56.934 346.576 C 57.317 346.680,57.350 346.310,57.007 345.755 C 56.582 345.067,56.829 344.916,57.779 345.280 C 58.641 345.611,59.099 345.423,58.975 344.790 C 58.864 344.225,59.465 343.820,60.310 343.890 C 61.155 343.960,61.637 343.807,61.380 343.551 C 60.908 343.079,63.366 340.880,64.421 340.830 C 64.737 340.815,65.457 342.866,66.021 345.386 C 67.446 351.755,67.595 351.910,71.296 350.888 C 73.026 350.411,74.876 350.288,75.406 350.616 C 75.950 350.952,76.141 350.841,75.844 350.360 C 75.554 349.891,76.275 349.071,77.445 348.538 C 80.245 347.262,80.338 347.285,80.338 349.260 C 80.338 351.269,81.636 351.506,82.356 349.629 C 82.635 348.902,83.242 348.541,83.705 348.828 C 84.168 349.114,84.348 348.828,84.104 348.194 C 83.861 347.559,84.408 346.363,85.321 345.537 C 87.161 343.872,90.445 348.030,89.117 350.342 C 88.791 350.910,88.839 351.088,89.225 350.738 C 89.611 350.388,90.594 350.706,91.410 351.445 C 92.765 352.671,93.446 352.664,99.313 351.359 C 102.844 350.573,107.218 350.072,109.032 350.245 C 110.847 350.418,112.168 350.295,111.967 349.971 C 111.665 349.482,114.288 348.182,115.877 348.033 C 116.741 347.952,120.930 344.355,120.930 343.695 C 120.930 343.326,119.693 344.142,118.182 345.508 L 115.433 347.992 117.917 345.243 C 120.617 342.255,121.776 341.802,121.776 343.735 C 121.776 345.994,124.593 350.926,126.169 351.427 C 127.022 351.697,127.524 352.236,127.284 352.625 C 127.044 353.013,127.562 353.144,128.435 352.915 C 129.309 352.687,130.513 351.585,131.112 350.466 C 132.280 348.283,134.825 350.141,134.265 352.769 C 134.140 353.355,134.609 353.852,135.307 353.873 C 136.004 353.894,136.575 354.446,136.575 355.099 C 136.575 355.752,137.336 356.443,138.266 356.633 C 140.399 357.069,146.246 357.380,145.905 357.039 C 145.475 356.610,150.069 352.121,150.661 352.391 C 150.967 352.531,151.029 351.788,150.799 350.741 C 150.458 349.186,150.555 349.070,151.327 350.106 C 152.065 351.097,152.147 350.839,151.699 348.922 C 151.297 347.196,151.411 346.646,152.087 347.064 C 152.724 347.457,152.859 347.169,152.489 346.205 C 152.082 345.143,152.232 344.940,153.052 345.446 C 153.812 345.916,153.971 345.813,153.546 345.125 C 152.416 343.297,154.694 341.466,156.212 342.983 C 158.033 344.805,159.906 344.179,162.020 341.043 C 163.024 339.553,163.988 338.476,164.164 338.649 C 164.339 338.822,164.482 335.763,164.482 331.849 C 164.482 327.936,164.197 324.735,163.848 324.735 C 163.499 324.735,163.214 324.206,163.214 323.558 C 163.214 322.910,162.603 322.145,161.857 321.859 C 161.089 321.564,160.709 320.797,160.981 320.088 C 161.245 319.399,161.032 318.927,160.508 319.038 C 158.777 319.403,156.376 309.534,156.340 301.903 C 156.305 294.667,157.899 285.769,158.931 287.439 C 159.636 288.579,159.415 279.777,158.622 275.148 C 157.966 271.315,159.418 264.338,160.706 265.135 C 161.144 265.405,161.288 265.066,161.025 264.381 C 160.762 263.695,160.970 262.343,161.487 261.377 C 162.163 260.114,162.167 259.619,161.502 259.619 C 160.993 259.619,160.788 259.277,161.047 258.859 C 161.306 258.440,161.893 254.475,162.352 250.046 C 163.252 241.364,166.122 232.165,167.637 233.102 C 168.173 233.433,168.305 233.270,167.956 232.706 C 167.285 231.621,168.900 228.086,169.810 228.648 C 170.726 229.214,171.215 223.709,170.658 219.090 C 170.550 218.193,170.190 217.628,169.859 217.833 C 168.973 218.381,168.073 214.985,168.795 213.817 C 169.206 213.151,168.961 212.993,168.054 213.341 C 167.009 213.742,166.636 213.240,166.435 211.159 C 166.265 209.405,165.767 208.543,165.015 208.702 C 164.102 208.895,163.981 208.121,164.442 205.048 L 165.026 201.150 162.995 202.481 C 161.878 203.213,160.774 203.621,160.542 203.389 C 160.310 203.157,159.227 203.916,158.136 205.077 C 157.046 206.238,156.423 207.188,156.753 207.188 C 157.083 207.188,156.940 207.960,156.436 208.903 C 155.931 209.846,155.147 210.389,154.693 210.109 C 154.240 209.829,153.924 209.913,153.990 210.297 C 154.258 211.834,153.875 213.185,153.277 212.817 C 152.928 212.602,152.526 215.149,152.383 218.475 C 152.064 225.911,150.839 230.867,149.318 230.867 C 148.688 230.867,147.944 231.462,147.665 232.189 C 147.381 232.929,146.725 233.244,146.176 232.904 C 145.595 232.545,145.420 232.664,145.749 233.197 C 146.447 234.325,145.512 236.922,144.609 236.364 C 144.241 236.136,143.713 236.543,143.435 237.268 C 143.157 237.992,142.565 238.360,142.120 238.085 C 141.675 237.810,140.870 238.410,140.330 239.418 C 138.973 241.953,137.810 246.209,138.609 245.715 C 141.501 243.928,143.824 253.270,141.254 256.355 L 139.591 258.351 139.563 256.156 C 139.512 252.152,135.277 249.749,133.645 252.799 C 131.245 257.283,133.037 261.406,138.614 264.233 C 140.865 265.373,142.944 266.926,143.235 267.683 C 143.967 269.592,143.899 269.951,142.918 269.345 C 142.452 269.057,142.072 269.225,142.072 269.718 C 142.072 270.211,140.415 270.613,138.380 270.613 C 134.244 270.613,129.803 267.877,130.594 265.816 C 130.850 265.150,130.702 264.826,130.265 265.096 C 129.210 265.748,127.454 262.386,128.210 261.163 C 128.552 260.609,128.427 260.436,127.916 260.752 C 126.444 261.662,124.314 254.884,124.299 249.243 C 124.283 242.909,127.671 227.835,128.762 229.393 C 129.221 230.048,129.295 229.723,128.958 228.528 C 128.320 226.261,130.029 220.493,131.137 221.178 C 131.559 221.439,131.654 220.999,131.348 220.201 C 130.972 219.223,131.110 218.947,131.770 219.356 C 132.431 219.764,132.569 219.488,132.193 218.510 C 131.775 217.419,131.935 217.232,132.837 217.756 C 133.498 218.139,133.766 218.152,133.434 217.783 C 133.101 217.415,133.234 216.357,133.729 215.432 C 134.405 214.169,134.380 213.904,133.630 214.367 C 133.049 214.726,133.206 213.871,134.004 212.328 C 134.760 210.866,135.689 209.862,136.069 210.097 C 136.449 210.332,136.649 209.510,136.513 208.272 C 136.225 205.651,137.569 202.690,138.722 203.403 C 139.170 203.680,139.273 203.262,138.959 202.442 C 138.583 201.464,138.721 201.188,139.381 201.597 C 140.042 202.005,140.180 201.729,139.804 200.751 C 139.397 199.688,139.547 199.485,140.368 199.992 C 141.095 200.441,141.285 200.356,140.910 199.750 C 140.593 199.237,141.446 195.564,142.807 191.589 C 144.168 187.615,144.940 184.574,144.522 184.832 C 143.404 185.522,143.590 184.602,145.181 181.565 C 145.961 180.076,146.522 177.760,146.427 176.418 C 146.233 173.657,148.292 169.979,150.032 169.979 C 150.667 169.979,152.085 169.247,153.183 168.353 L 155.180 166.728 152.643 165.754 C 149.711 164.629,127.485 163.881,128.133 164.929 M245.262 182.206 C 244.476 183.675,244.482 184.863,245.290 187.559 C 246.100 190.265,246.108 192.143,245.323 196.129 C 244.591 199.851,244.569 201.701,245.243 202.960 C 245.751 203.909,245.953 205.033,245.691 205.456 C 245.430 205.879,245.661 206.501,246.206 206.838 C 246.862 207.243,246.988 207.049,246.580 206.262 C 246.241 205.608,246.571 205.824,247.313 206.741 C 248.056 207.658,248.469 208.915,248.231 209.533 C 247.994 210.152,248.139 210.449,248.553 210.193 C 249.844 209.395,251.140 214.732,250.604 218.642 C 250.323 220.693,249.844 222.218,249.540 222.030 C 249.237 221.842,248.988 222.394,248.988 223.256 C 248.988 224.118,249.352 224.598,249.796 224.323 C 250.261 224.036,250.368 224.440,250.048 225.275 C 249.733 226.095,249.836 226.513,250.284 226.236 C 251.284 225.618,252.129 230.118,251.946 235.095 C 251.870 237.188,252.192 242.326,252.663 246.512 C 253.134 250.698,253.257 254.224,252.936 254.347 C 252.614 254.471,252.462 255.993,252.597 257.730 C 252.732 259.467,252.623 260.412,252.355 259.831 C 251.220 257.370,250.683 259.135,251.008 264.249 C 251.411 270.565,250.718 274.343,249.316 273.477 C 248.736 273.118,248.600 273.269,248.967 273.864 C 249.613 274.909,247.524 278.532,246.732 277.740 C 246.471 277.479,246.315 277.957,246.385 278.802 C 246.455 279.647,246.050 280.248,245.485 280.137 C 244.920 280.026,244.661 280.463,244.908 281.109 C 245.156 281.754,244.893 282.569,244.324 282.920 C 243.620 283.356,243.508 283.207,243.975 282.452 C 244.418 281.735,244.328 281.550,243.719 281.926 C 243.203 282.245,242.980 283.027,243.224 283.662 C 243.468 284.298,243.202 285.106,242.633 285.457 C 241.928 285.893,241.817 285.744,242.283 284.989 C 242.739 284.251,242.637 284.086,241.977 284.494 C 241.433 284.831,241.209 285.465,241.480 285.903 C 242.206 287.078,237.195 291.755,235.210 291.755 C 234.272 291.755,233.309 291.440,233.072 291.056 C 232.411 289.986,233.496 286.638,234.336 287.157 C 234.743 287.409,234.879 287.101,234.638 286.473 C 234.241 285.440,238.122 280.891,238.969 281.395 C 239.164 281.512,239.316 281.413,239.306 281.175 C 239.297 280.938,239.868 279.625,240.575 278.257 C 243.272 273.042,241.345 268.730,237.000 270.258 C 235.477 270.794,234.024 272.569,232.381 275.900 C 230.051 280.625,228.330 282.128,228.330 279.438 C 228.330 277.388,231.830 269.741,232.562 270.193 C 232.920 270.414,233.161 269.933,233.097 269.124 C 233.033 268.315,233.443 267.744,234.008 267.855 C 234.641 267.979,234.829 267.520,234.498 266.659 C 234.141 265.728,234.289 265.464,234.942 265.867 C 235.555 266.246,235.754 266.037,235.474 265.306 C 235.228 264.664,235.431 263.075,235.925 261.775 C 236.419 260.475,236.566 258.037,236.251 256.358 C 235.772 253.801,235.572 253.578,235.023 254.982 C 234.465 256.412,234.360 256.309,234.309 254.284 C 234.270 252.725,233.917 252.114,233.281 252.507 C 232.614 252.919,232.445 252.417,232.736 250.891 C 233.002 249.503,232.836 248.877,232.292 249.213 C 231.760 249.542,231.640 249.188,231.982 248.298 C 232.313 247.436,232.199 247.056,231.703 247.363 C 230.936 247.837,230.491 246.674,230.788 244.969 C 230.854 244.585,230.589 244.470,230.197 244.711 C 228.985 245.461,226.485 240.312,227.063 238.256 C 227.425 236.969,227.346 236.723,226.815 237.486 C 225.401 239.521,225.010 233.019,226.205 227.344 C 227.194 222.650,227.171 221.732,226.016 219.925 C 225.291 218.790,224.513 215.270,224.286 212.102 C 224.060 208.934,223.618 206.342,223.305 206.342 C 222.775 206.342,220.614 214.214,219.415 220.515 C 219.126 222.030,218.546 223.058,218.126 222.798 C 217.705 222.539,217.545 223.391,217.770 224.694 C 218.578 229.380,222.516 250.825,223.281 254.708 C 223.922 257.964,223.738 259.631,222.249 264.010 C 220.754 268.406,220.423 271.427,220.366 281.184 C 220.327 287.696,219.931 293.592,219.484 294.287 C 219.037 294.982,218.636 296.977,218.593 298.720 C 218.549 300.463,218.765 301.481,219.074 300.982 C 219.962 299.544,220.796 306.619,220.187 310.428 C 219.802 312.835,219.407 313.539,218.883 312.754 C 218.412 312.049,218.344 312.545,218.702 314.080 C 219.105 315.806,218.990 316.356,218.315 315.938 C 217.698 315.557,217.535 315.813,217.859 316.658 C 218.136 317.380,217.988 317.970,217.529 317.970 C 216.036 317.970,214.602 322.912,214.488 328.454 C 214.427 331.436,214.639 333.715,214.959 333.516 C 215.534 333.161,215.661 333.932,215.771 338.450 C 215.807 339.935,216.397 340.928,217.440 341.259 C 218.326 341.541,218.797 342.183,218.486 342.686 C 218.148 343.234,218.315 343.358,218.904 342.994 C 220.687 341.892,223.265 343.417,224.461 346.280 C 225.606 349.020,228.336 350.724,229.966 349.717 C 230.423 349.435,230.885 350.970,231.031 353.256 L 231.290 357.294 235.704 357.328 C 238.132 357.347,239.680 357.092,239.145 356.761 C 238.062 356.091,242.037 355.223,247.483 354.940 C 249.412 354.839,250.841 354.511,250.659 354.211 C 249.952 353.049,252.585 352.892,254.108 354.005 C 256.311 355.616,259.065 355.477,261.332 353.641 C 263.184 352.141,263.280 352.152,265.192 354.064 C 267.784 356.656,273.863 356.817,276.092 354.354 C 276.924 353.435,277.883 352.855,278.224 353.066 C 278.565 353.276,279.561 352.601,280.437 351.566 L 282.030 349.683 279.952 351.374 L 277.875 353.066 279.952 350.406 L 282.030 347.747 284.144 349.967 C 285.307 351.188,286.184 352.416,286.093 352.696 C 285.760 353.731,288.874 353.169,291.441 351.732 C 294.651 349.934,303.417 349.185,302.423 350.794 C 302.189 351.172,303.912 351.236,306.252 350.936 C 311.085 350.316,312.019 349.321,312.038 344.781 L 312.051 341.570 314.078 343.089 C 315.193 343.925,315.893 344.989,315.634 345.455 C 315.374 345.920,315.464 346.028,315.832 345.696 C 316.200 345.363,317.244 345.489,318.152 345.975 C 319.418 346.652,320.173 346.523,321.394 345.418 C 322.363 344.540,323.813 344.136,325.103 344.382 C 326.268 344.605,327.027 344.473,326.790 344.089 C 325.789 342.470,330.979 342.284,333.861 343.836 L 336.811 345.425 338.173 343.353 C 338.922 342.214,340.342 340.337,341.328 339.182 L 343.122 337.082 344.517 339.779 C 345.284 341.263,345.936 342.766,345.965 343.120 C 345.994 343.474,346.238 343.953,346.506 344.186 C 346.775 344.419,346.715 344.038,346.373 343.340 C 345.839 342.250,345.909 342.253,346.872 343.362 C 348.055 344.726,352.823 345.162,352.000 343.831 C 351.736 343.403,352.148 343.294,352.917 343.589 C 353.778 343.920,354.237 343.732,354.112 343.099 C 353.974 342.390,355.028 342.155,357.513 342.341 C 359.493 342.489,363.299 341.971,365.969 341.188 C 368.640 340.406,371.289 339.693,371.857 339.605 C 372.425 339.516,373.186 339.117,373.548 338.719 C 373.911 338.321,373.636 338.302,372.939 338.678 C 372.241 339.054,372.464 338.587,373.435 337.641 C 375.015 336.100,375.314 334.211,376.304 319.502 C 378.162 291.876,376.899 278.713,371.219 266.509 C 369.843 263.555,368.965 260.737,369.268 260.248 C 369.614 259.687,369.404 259.614,368.697 260.050 C 367.877 260.557,367.726 260.354,368.134 259.291 C 368.449 258.472,368.346 258.054,367.897 258.331 C 366.905 258.944,365.168 255.857,365.992 254.944 C 366.324 254.576,366.121 254.548,365.539 254.883 C 364.958 255.217,364.434 255.088,364.376 254.595 C 364.318 254.103,364.223 253.351,364.165 252.925 C 364.107 252.498,363.713 251.832,363.289 251.445 C 362.837 251.030,362.776 251.263,363.141 252.008 C 363.482 252.706,363.175 252.555,362.458 251.672 C 361.740 250.790,361.327 249.787,361.540 249.443 C 361.753 249.099,361.265 248.299,360.456 247.665 C 359.107 246.607,359.081 246.652,360.148 248.203 C 360.787 249.133,360.306 248.820,359.079 247.508 C 357.851 246.195,357.031 244.823,357.256 244.459 C 357.481 244.095,356.630 242.886,355.365 241.772 L 353.066 239.746 354.757 241.918 C 355.687 243.112,354.848 242.381,352.893 240.294 C 350.938 238.207,349.499 236.238,349.696 235.920 C 350.102 235.263,346.044 231.221,345.175 231.418 C 344.864 231.488,343.658 230.794,342.495 229.875 C 341.332 228.956,340.915 228.482,341.568 228.821 C 342.356 229.229,342.550 229.103,342.144 228.447 C 341.808 227.902,341.234 227.641,340.870 227.866 C 340.505 228.091,339.485 227.689,338.602 226.972 C 337.720 226.254,337.569 225.947,338.266 226.289 C 339.000 226.648,339.242 226.589,338.841 226.151 C 338.459 225.733,337.508 225.387,336.727 225.381 C 335.946 225.375,335.411 224.866,335.539 224.250 C 335.667 223.634,335.410 223.353,334.968 223.627 C 333.893 224.291,329.744 222.355,330.303 221.451 C 330.545 221.059,330.090 220.989,329.292 221.295 C 328.230 221.703,328.026 221.552,328.533 220.732 C 328.996 219.984,328.899 219.814,328.241 220.220 C 326.957 221.014,323.723 219.981,324.345 218.976 C 324.608 218.550,324.296 218.404,323.651 218.651 C 323.006 218.899,319.171 218.143,315.128 216.971 C 295.767 211.360,283.196 212.587,278.961 220.500 C 278.399 221.549,277.758 222.226,277.535 222.003 C 277.313 221.781,278.138 220.077,279.369 218.217 C 282.768 213.080,282.390 211.892,274.995 204.497 C 268.963 198.465,268.194 197.011,271.759 198.379 C 272.542 198.679,272.837 199.422,272.516 200.281 C 272.065 201.485,272.187 201.529,273.350 200.585 C 274.533 199.623,275.164 200.077,278.158 204.042 C 283.412 211.001,283.184 210.946,307.922 211.251 C 329.202 211.514,329.594 211.488,330.042 209.775 C 330.292 208.816,330.180 208.228,329.792 208.468 C 329.097 208.897,327.624 205.676,327.951 204.440 C 328.043 204.091,327.833 203.877,327.484 203.964 C 327.135 204.051,324.567 201.900,321.776 199.184 C 318.985 196.468,317.463 194.779,318.393 195.432 C 319.948 196.521,319.991 196.498,318.932 195.147 C 318.298 194.338,317.481 193.860,317.117 194.085 C 316.753 194.310,315.732 193.830,314.847 193.019 C 313.963 192.207,313.828 191.906,314.548 192.348 C 315.646 193.024,315.680 192.956,314.757 191.925 C 314.152 191.250,313.296 190.650,312.854 190.592 C 312.412 190.534,311.648 190.439,311.155 190.381 C 310.663 190.322,310.501 189.885,310.795 189.408 C 311.090 188.932,311.017 188.596,310.634 188.663 C 308.832 188.976,307.778 188.494,308.326 187.607 C 308.685 187.026,308.559 186.859,308.016 187.195 C 307.011 187.816,302.614 186.107,303.112 185.289 C 303.472 184.696,297.270 184.027,291.755 184.063 C 284.458 184.112,276.718 184.782,277.538 185.294 C 278.784 186.072,270.730 187.878,268.632 187.292 C 267.186 186.887,267.071 186.966,268.076 187.669 C 269.037 188.343,268.348 188.561,265.231 188.571 C 261.005 188.584,254.171 185.645,255.066 184.198 C 255.314 183.796,255.203 183.522,254.820 183.589 C 253.181 183.873,251.943 183.454,252.372 182.759 C 252.627 182.347,252.174 182.061,251.365 182.125 C 250.556 182.189,249.958 181.860,250.035 181.395 C 250.328 179.635,246.269 180.324,245.262 182.206 M399.459 207.188 C 399.459 211.607,399.602 213.414,399.776 211.205 C 399.950 208.996,399.950 205.381,399.776 203.171 C 399.602 200.962,399.459 202.770,399.459 207.188 M67.653 200.687 C 67.653 200.833,66.416 202.070,64.905 203.436 L 62.156 205.920 64.640 203.171 C 66.955 200.609,67.653 200.034,67.653 200.687 M37.209 231.290 C 35.155 233.383,33.284 235.095,33.052 235.095 C 32.819 235.095,34.309 233.383,36.364 231.290 C 38.418 229.197,40.289 227.484,40.521 227.484 C 40.754 227.484,39.263 229.197,37.209 231.290 M250.530 232.135 C 250.540 233.996,250.713 234.657,250.915 233.605 C 251.118 232.553,251.110 231.031,250.898 230.223 C 250.687 229.414,250.521 230.275,250.530 232.135 M189.463 255.057 C 188.514 258.130,187.738 261.376,187.738 262.272 C 187.738 263.168,187.201 264.107,186.546 264.358 C 185.890 264.610,185.103 265.815,184.796 267.036 C 184.384 268.677,184.054 268.957,183.528 268.106 C 183.004 267.259,182.736 267.493,182.509 268.996 C 182.340 270.118,181.757 270.948,181.214 270.841 C 180.505 270.701,180.550 271.419,181.374 273.391 C 182.289 275.580,182.334 277.427,181.600 282.526 C 180.740 288.491,180.830 289.399,182.940 296.168 C 184.183 300.156,185.201 304.655,185.201 306.167 C 185.201 309.988,181.657 323.890,180.816 323.370 C 180.437 323.136,180.127 323.370,180.127 323.890 C 180.127 324.410,179.827 324.650,179.461 324.424 C 178.651 323.923,178.170 326.979,178.080 333.192 L 178.013 337.844 183.626 337.551 C 189.225 337.260,193.337 338.424,192.350 340.021 C 192.070 340.474,192.332 340.741,192.932 340.613 C 193.670 340.456,194.207 341.889,194.590 345.032 C 195.319 351.028,196.023 352.643,197.907 352.643 C 200.116 352.643,202.172 353.557,201.696 354.327 C 201.471 354.691,201.939 354.937,202.737 354.873 C 203.535 354.809,204.197 355.326,204.208 356.021 C 204.223 356.959,205.430 357.345,208.879 357.516 C 213.088 357.725,213.347 357.641,211.601 356.631 C 210.540 356.017,209.958 355.229,210.307 354.880 C 210.656 354.530,210.222 354.521,209.341 354.859 C 208.084 355.341,207.855 355.175,208.273 354.085 C 208.566 353.322,208.383 352.436,207.866 352.116 C 207.258 351.740,207.168 351.926,207.611 352.643 C 208.077 353.397,207.966 353.546,207.261 353.111 C 206.692 352.759,206.439 351.920,206.698 351.245 C 206.957 350.570,206.832 350.226,206.421 350.480 C 206.010 350.734,205.449 350.355,205.174 349.638 C 204.899 348.921,203.527 347.934,202.125 347.446 C 200.724 346.957,199.532 346.119,199.476 345.583 C 199.421 345.047,199.256 342.706,199.109 340.381 C 198.962 338.055,198.722 335.207,198.575 334.052 C 198.396 332.636,198.722 331.947,199.577 331.936 C 200.619 331.922,200.836 330.475,200.792 323.852 C 200.733 314.924,199.926 311.184,198.700 314.165 C 198.099 315.628,197.997 315.530,197.945 313.440 C 197.903 311.729,197.540 311.157,196.700 311.479 C 195.233 312.042,194.186 307.332,195.006 303.856 C 195.858 300.247,198.897 295.140,199.844 295.725 C 200.310 296.013,200.421 295.818,200.092 295.286 C 199.766 294.758,199.928 293.525,200.452 292.545 C 201.521 290.548,200.742 289.024,199.598 290.875 C 198.616 292.464,197.502 286.635,198.232 283.726 C 198.629 282.145,198.430 281.607,197.449 281.607 C 196.407 281.607,196.318 281.265,197.021 279.951 C 198.076 277.980,197.799 270.580,196.696 271.254 C 196.273 271.512,196.143 270.902,196.405 269.899 C 196.668 268.895,196.565 268.270,196.177 268.510 C 195.147 269.146,194.301 265.853,194.924 263.636 C 195.290 262.336,195.212 262.091,194.676 262.862 C 193.558 264.472,192.838 261.319,192.823 254.757 C 192.808 247.941,191.629 248.046,189.463 255.057 M8.670 298.943 C 8.679 300.803,8.852 301.465,9.055 300.413 C 9.257 299.361,9.249 297.839,9.038 297.030 C 8.826 296.222,8.661 297.082,8.670 298.943 M202.327 325.159 C 202.337 327.019,202.510 327.681,202.712 326.629 C 202.915 325.577,202.907 324.054,202.695 323.246 C 202.484 322.437,202.318 323.298,202.327 325.159 " stroke="none" fill="#4e5f92" fill-rule="evenodd"></path></g></svg>