<?xml version="1.0" encoding="UTF-8" standalone="no"?>
<!-- Created with Inkscape (http://www.inkscape.org/) -->

<svg
   width="149.66573mm"
   height="3220.0986mm"
   viewBox="0 0 149.66572 3220.0986"
   version="1.1"
   id="svg1"
   inkscape:version="1.3.1 (9b9bdc1480, 2023-11-25, custom)"
   sodipodi:docname="fallice.svg"
   xmlns:inkscape="http://www.inkscape.org/namespaces/inkscape"
   xmlns:sodipodi="http://sodipodi.sourceforge.net/DTD/sodipodi-0.dtd"
   xmlns="http://www.w3.org/2000/svg"
   xmlns:svg="http://www.w3.org/2000/svg">
  <sodipodi:namedview
     id="namedview1"
     pagecolor="#505050"
     bordercolor="#eeeeee"
     borderopacity="1"
     inkscape:showpageshadow="0"
     inkscape:pageopacity="0"
     inkscape:pagecheckerboard="0"
     inkscape:deskcolor="#505050"
     inkscape:document-units="mm"
     inkscape:zoom="0.09031022"
     inkscape:cx="332.18832"
     inkscape:cy="3094.8878"
     inkscape:window-width="1920"
     inkscape:window-height="1011"
     inkscape:window-x="1920"
     inkscape:window-y="32"
     inkscape:window-maximized="1"
     inkscape:current-layer="layer1" />
  <defs
     id="defs1" />
  <g
     inkscape:label="Layer 1"
     inkscape:groupmode="layer"
     id="layer1"
     transform="translate(-25.186713,514.19728)">
    <path
       style="fill:#8c8cf6;fill-opacity:1;stroke-width:0.264583"
       d="m 49.263043,-80.251458 -13.930478,25.832847 9.62539,26.153542 -4.01932,6.692286 9.039519,12.0813541 15.594544,-28.0038631 -14.705362,-40.568351 z"
       id="path2" />
    <path
       style="fill:#8c8cf6;fill-opacity:1;stroke-width:0.264583"
       d="m 103.97526,95.495755 -9.091064,25.556215 7.000884,8.40542 -3.057753,5.22321 7.757533,7.74613 3.95328,-6.72885 1.92174,3.16809 5.93843,-10.75234 z"
       id="path3" />
    <path
       style="fill:#8c8cf6;fill-opacity:1;stroke-width:0.264583"
       d="m 50.236104,177.02421 -8.708354,18.71319 5.062983,10.37191 -7.059586,8.95534 9.314661,23.51021 16.745094,-24.92349 z"
       id="path4" />
    <path
       style="fill:#8c8cf6;fill-opacity:1;stroke-width:0.264583"
       d="m 141.46762,-236.15989 -6.30828,13.67964 7.17101,18.49304 7.68337,-17.69327 z"
       id="path5" />
    <path
       style="fill:#8c8cf6;fill-opacity:1;stroke-width:0.264583"
       d="m 47.615704,-514.19728 -14.091949,33.28714 11.317382,27.44109 -6.58023,8.57971 8.843235,13.75736 17.504709,-23.64811 z"
       id="path6" />
    <path
       style="fill:#8c8cf6;fill-opacity:1;stroke-width:0.264583"
       d="m 67.04348,-176.77201 -18.300114,34.17095 11.181719,21.91613 13.283967,-15.49376 -5.216874,-13.05183 8.397899,-11.49551 z"
       id="path7" />
    <path
       style="fill:#8c8cf6;fill-opacity:1;stroke-width:0.264583"
       d="m 143.04921,-17.98669 -17.08523,37.369555 18.84934,36.355411 12.17135,-41.267992 -9.37653,-3.718529 3.63042,-11.57381896 z"
       id="path8" />
    <path
       style="fill:#8c8cf6;fill-opacity:1;stroke-width:0.264583"
       d="m 97.997694,-124.68824 -8.084238,24.4725 4.888879,31.247029 6.267305,-21.717323 10.02692,27.996842 7.46943,-45.197828 z"
       id="path9" />
    <path
       style="fill:#8c8cf6;fill-opacity:1;stroke-width:0.264583"
       d="m 41.692362,-360.193 -13.596366,42.0333 15.698246,36.19679 31.623402,-36.94654 -17.195328,-41.64829 -7.47593,38.89738 z"
       id="path10" />
    <path
       style="fill:#8c8cf6;fill-opacity:1;stroke-width:0.264583"
       d="m 140.24618,-364.5577 c -2.09608,1.90997 -10.64066,32.14583 -10.64066,32.14583 l 7.25397,35.65219 15.20375,-37.8059 z"
       id="path11" />
    <path
       style="fill:#c1c1fa;fill-opacity:1;stroke-width:0.264583"
       d="m 46.664134,-498.64037 -8.603748,18.78421 3.454477,7.0142 z"
       id="path13" />
    <path
       style="fill:#c1c1fa;fill-opacity:1;stroke-width:0.264583"
       d="m 46.510525,-449.16068 -4.139509,5.63743 3.919386,5.37245 z"
       id="path14" />
    <path
       style="fill:#c1c1fa;fill-opacity:1;stroke-width:0.264583"
       d="m 140.16729,-357.73294 -4.22754,13.734 8.77164,-2.4194 z"
       id="path17" />
    <path
       style="fill:#c1c1fa;fill-opacity:1;stroke-width:0.264583"
       d="m 40.243709,-338.64192 -6.702008,19.51102 8.690391,-8.88102 z"
       id="path18" />
    <path
       style="fill:#c1c1fa;fill-opacity:1;stroke-width:0.264583"
       d="m 60.296962,-346.71104 -4.20692,25.03069 7.336933,-13.3294 z"
       id="path19" />
    <path
       style="fill:#c1c1fa;fill-opacity:1;stroke-width:0.264583"
       d="m 142.74922,-229.57542 -4.21319,7.90247 3.08087,3.02268 z"
       id="path21" />
    <path
       style="fill:#c1c1fa;fill-opacity:1;stroke-width:0.264583"
       d="m 66.610028,-172.59819 -14.564455,28.61829 16.714454,-22.48973 -1.700128,-6.07132 z"
       id="path22" />
    <path
       style="fill:#c1c1fa;fill-opacity:1;stroke-width:0.264583"
       d="m 63.176531,-133.68967 3.903925,-13.30956 3.521281,10.58755 z"
       id="path23" />
    <path
       style="fill:#c1c1fa;fill-opacity:1;stroke-width:0.264583"
       d="m 98.988171,-120.7878 -6.949023,21.109912 1.47047,10.373655 z"
       id="path24" />
    <path
       style="fill:#c1c1fa;fill-opacity:1;stroke-width:0.264583"
       d="m 103.74176,-89.355275 6.37821,19.65099 -0.90857,-18.838981 -4.81779,-0.665682 z"
       id="path25" />
    <path
       style="fill:#c1c1fa;fill-opacity:1;stroke-width:0.264583"
       d="m 49.355615,-73.442082 -10.669483,20.09961 3.638357,8.567353 z"
       id="path26" />
    <path
       style="fill:#c1c1fa;fill-opacity:1;stroke-width:0.264583"
       d="m 46.107953,-25.86128 -2.568575,4.163727 5.791048,8.41542 z"
       id="path27" />
    <path
       style="fill:#c1c1fa;fill-opacity:1;stroke-width:0.264583"
       d="m 142.96677,-11.017539 -14.00936,31.180101 3.49884,6.334603 z"
       id="path28" />
    <path
       style="fill:#c1c1fa;fill-opacity:1;stroke-width:0.264583"
       d="m 148.38465,13.592515 2.63393,10.658998 2.93871,-8.661141 z"
       id="path29" />
    <path
       style="fill:#c1c1fa;fill-opacity:1;stroke-width:0.264583"
       d="m 104.44758,102.22173 -6.042818,18.29442 4.463908,5.74675 z"
       id="path30" />
    <path
       style="fill:#c1c1fa;fill-opacity:1;stroke-width:0.264583"
       d="m 111.0712,132.40608 1.78679,3.3655 1.12918,-4.19365 z"
       id="path31" />
    <path
       style="fill:#c1c1fa;fill-opacity:1;stroke-width:0.264583"
       d="m 50.189282,183.41371 -5.393616,12.17119 3.48508,7.65209 z"
       id="path32" />
    <path
       style="fill:#c1c1fa;fill-opacity:1;stroke-width:0.264583"
       d="m 46.582467,209.83221 -3.08771,6.17 6.077372,17.97456 z"
       id="path33" />
    <path
       style="fill:#8c8cf6;fill-opacity:1;stroke-width:0.264583"
       d="m 146.66515,360.23607 -9.72903,13.14306 -16.01482,5.49823 12.58671,12.09034 10.99039,21.46638 10.48255,-23.52659 -3.51507,-13.36595 1.99437,-9.34069 z"
       id="path1-5"
       sodipodi:nodetypes="ccccccccc" />
    <path
       style="fill:#8c8cf6;fill-opacity:1;stroke-width:0.264583"
       d="m 144.4534,810.31325 -13.93048,25.83285 9.62539,26.15354 -4.01932,6.69228 9.03952,12.08135 15.59454,-28.00385 -14.70535,-40.56836 z"
       id="path2-4" />
    <path
       style="fill:#8c8cf6;fill-opacity:1;stroke-width:0.264583"
       d="m 54.12997,1003.7906 -8.708354,18.7131 5.06298,10.372 -7.05958,8.9552 9.314661,23.5103 16.745087,-24.9235 z"
       id="path4-4" />
    <path
       style="fill:#8c8cf6;fill-opacity:1;stroke-width:0.264583"
       d="m 108.65806,573.03588 -4.91164,23.71034 7.17101,18.49304 7.68336,-17.69326 z"
       id="path5-4"
       sodipodi:nodetypes="ccccc" />
    <path
       style="fill:#8c8cf6;fill-opacity:1;stroke-width:0.264583"
       d="m 61.389797,877.07304 -6.308275,13.67964 7.171006,18.49304 7.683367,-17.69327 z"
       id="path5-5-3" />
    <path
       style="fill:#8c8cf6;fill-opacity:1;stroke-width:0.264583"
       d="m 51.509573,312.56906 -12.383709,32.38713 3.910751,19.32116 -0.88184,17.59965 8.843234,13.75736 22.094982,-31.41626 z"
       id="path6-0"
       sodipodi:nodetypes="ccccccc" />
    <path
       style="fill:#8c8cf6;fill-opacity:1;stroke-width:0.264583"
       d="m 89.565131,653.8615 -16.029096,40.72664 29.615875,14.15353 6.80273,-19.2417 -9.5726,-10.29229 3.6873,-13.75046 z"
       id="path7-7"
       sodipodi:nodetypes="ccccccc" />
    <path
       style="fill:#8c8cf6;fill-opacity:1;stroke-width:0.264583"
       d="M 42.271939,727.38199 25.186713,764.75155 44.036042,801.10696 56.207398,759.83897 43.14798,745.1087 50.461287,744.54662 Z"
       id="path8-8"
       sodipodi:nodetypes="ccccccc" />
    <path
       style="fill:#8c8cf6;fill-opacity:1;stroke-width:0.264583"
       d="m 140.78418,694.09711 -8.08423,24.4725 4.88889,31.24703 6.26729,-21.71734 10.02692,27.99685 7.46943,-45.19782 z"
       id="path9-6" />
    <path
       style="fill:#8c8cf6;fill-opacity:1;stroke-width:0.264583"
       d="m 45.586231,466.57334 -13.596366,42.0333 26.407074,11.63383 20.91457,-12.38358 -17.195327,-41.64829 -2.07731,16.69064 z"
       id="path10-8"
       sodipodi:nodetypes="ccccccc" />
    <path
       style="fill:#8c8cf6;fill-opacity:1;stroke-width:0.264583"
       d="m 144.14005,462.20864 c -2.09609,1.90997 -10.64067,32.14583 -10.64067,32.14583 l 7.25396,35.65219 21.91466,-36.77988 z"
       id="path11-8"
       sodipodi:nodetypes="ccccc" />
    <path
       style="fill:#8c8cf6;fill-opacity:1;stroke-width:0.264583"
       d="m 143.13922,1017.8664 -7.436,21.4965 7.95646,19.3106 4.98404,-14.0314 8.88198,15.1378 6.23569,-23.5709 -18.21685,-18.6973 z"
       id="path12-4" />
    <path
       style="fill:#c1c1fa;fill-opacity:1;stroke-width:0.264583"
       d="m 50.557995,328.12597 -8.603743,18.78421 3.454475,7.0142 z"
       id="path13-1" />
    <path
       style="fill:#c1c1fa;fill-opacity:1;stroke-width:0.264583"
       d="m 50.404386,377.60566 -4.139499,5.63743 3.919377,5.37245 z"
       id="path14-4" />
    <path
       style="fill:#c1c1fa;fill-opacity:1;stroke-width:0.264583"
       d="m 147.2926,364.6987 -7.56333,10.68861 6.22136,0.0638 z"
       id="path15-9" />
    <path
       style="fill:#c1c1fa;fill-opacity:1;stroke-width:0.264583"
       d="m 143.15469,387.02374 -4.4088,4.42571 7.59836,1.19489 z"
       id="path16-2" />
    <path
       style="fill:#c1c1fa;fill-opacity:1;stroke-width:0.264583"
       d="m 144.06115,469.03339 -4.22754,13.73401 8.77164,-2.41941 z"
       id="path17-0" />
    <path
       style="fill:#c1c1fa;fill-opacity:1;stroke-width:0.264583"
       d="m 44.137572,488.12442 -6.702005,19.51102 8.690391,-8.88102 z"
       id="path18-6" />
    <path
       style="fill:#c1c1fa;fill-opacity:1;stroke-width:0.264583"
       d="m 64.190827,480.0553 -4.206919,25.03069 7.336935,-13.3294 z"
       id="path19-8" />
    <path
       style="fill:#c1c1fa;fill-opacity:1;stroke-width:0.264583"
       d="m 111.33631,589.65106 -4.21319,7.90247 3.08086,3.02268 z"
       id="path21-2" />
    <path
       style="fill:#c1c1fa;fill-opacity:1;stroke-width:0.264583"
       d="m 90.666016,657.91079 -3.264088,31.94488 7.479508,-27.00403 -3.775176,-5.04969 z"
       id="path22-6" />
    <path
       style="fill:#c1c1fa;fill-opacity:1;stroke-width:0.264583"
       d="m 101.49479,695.43944 -1.15848,-13.82183 7.10245,8.60529 z"
       id="path23-6" />
    <path
       style="fill:#c1c1fa;fill-opacity:1;stroke-width:0.264583"
       d="m 141.77467,697.99755 -6.94903,21.10991 1.47047,10.37365 z"
       id="path24-4" />
    <path
       style="fill:#c1c1fa;fill-opacity:1;stroke-width:0.264583"
       d="m 146.52825,729.43007 6.37822,19.65098 -0.90857,-18.83898 -4.81779,-0.66567 z"
       id="path25-9" />
    <path
       style="fill:#c1c1fa;fill-opacity:1;stroke-width:0.264583"
       d="m 144.54597,817.12262 -10.66948,20.09961 3.63836,8.56735 z"
       id="path26-5" />
    <path
       style="fill:#c1c1fa;fill-opacity:1;stroke-width:0.264583"
       d="m 141.29831,864.70343 -2.56858,4.16373 5.79106,8.41542 z"
       id="path27-0" />
    <path
       style="fill:#c1c1fa;fill-opacity:1;stroke-width:0.264583"
       d="m 42.189502,734.35115 -14.009366,31.1801 3.498842,6.3346 z"
       id="path28-4" />
    <path
       style="fill:#c1c1fa;fill-opacity:1;stroke-width:0.264583"
       d="m 47.607376,758.9612 2.633935,10.659 2.938716,-8.66115 z"
       id="path29-8" />
    <path
       style="fill:#c1c1fa;fill-opacity:1;stroke-width:0.264583"
       d="m 54.083154,1010.18 -5.393625,12.1713 3.485084,7.6521 z"
       id="path32-7" />
    <path
       style="fill:#c1c1fa;fill-opacity:1;stroke-width:0.264583"
       d="m 50.476331,1036.5986 -3.08771,6.1699 6.077377,17.9746 z"
       id="path33-2" />
    <path
       style="fill:#c1c1fa;fill-opacity:1;stroke-width:0.264583"
       d="m 145.16482,1019.8897 -6.32222,19.311 3.77121,6.7152 z"
       id="path34-7" />
    <path
       style="fill:#c1c1fa;fill-opacity:1;stroke-width:0.264583"
       d="m 58.468754,890.20081 8.557405,0.64797 -6.020923,-9.61387 z"
       id="path35-2" />
    <path
       style="fill:#8c8cf6;fill-opacity:1;stroke-width:0.264583"
       d="m 101.06799,268.22776 c -2.679433,3.15414 -15.077401,19.01767 -15.077401,19.01767 l 19.807411,1.94463 3.96944,17.44249 4.33122,-22.81746 z"
       id="path37" />
    <path
       style="fill:#c1c1fa;fill-opacity:1;stroke-width:0.264583"
       d="m 100.43126,274.62057 c -1.119214,0.56622 -6.71414,8.39713 -6.71414,8.39713 l 6.84372,0.34805 z"
       id="path38" />
    <path
       style="fill:#8c8cf6;fill-opacity:1;stroke-width:0.264583"
       d="m 131.61724,1173.6745 -9.72904,13.1431 1.47228,10.0761 -4.90038,7.5125 10.99038,21.4664 10.48256,-23.5266 -3.51508,-13.366 1.99438,-9.3407 z"
       id="path1-6" />
    <path
       style="fill:#8c8cf6;fill-opacity:1;stroke-width:0.264583"
       d="m 60.354096,1560.3086 -13.930478,25.8328 9.625386,26.1536 -4.019318,6.6922 9.03952,12.0814 15.594544,-28.0039 -14.705362,-40.5683 z"
       id="path2-1" />
    <path
       style="fill:#8c8cf6;fill-opacity:1;stroke-width:0.264583"
       d="m 115.06631,1736.0558 -9.09107,25.5563 7.0009,8.4053 -3.05776,5.2232 7.75753,7.7462 3.95329,-6.729 1.92173,3.1683 5.93843,-10.7524 z"
       id="path3-5" />
    <path
       style="fill:#8c8cf6;fill-opacity:1;stroke-width:0.264583"
       d="m 61.327155,1817.5843 -8.708351,18.7131 5.062978,10.3719 -7.05958,8.9554 9.314663,23.5102 16.745085,-24.9234 z"
       id="path4-9" />
    <path
       style="fill:#8c8cf6;fill-opacity:1;stroke-width:0.264583"
       d="m 134.17603,1430.4194 -6.30828,13.6798 7.17101,18.4929 7.68336,-17.6932 z"
       id="path5-49" />
    <path
       style="fill:#8c8cf6;fill-opacity:1;stroke-width:0.264583"
       d="m 49.995269,1694.4855 -6.308275,13.6797 7.171007,18.493 7.683367,-17.6933 z"
       id="path5-5-0" />
    <path
       style="fill:#8c8cf6;fill-opacity:1;stroke-width:0.264583"
       d="m 80.002752,1124.2262 -14.09195,33.2871 11.317382,27.4411 -6.58023,8.5797 8.843235,13.7574 17.504708,-23.6481 z"
       id="path6-9" />
    <path
       style="fill:#8c8cf6;fill-opacity:1;stroke-width:0.264583"
       d="m 107.52388,1469.4559 -18.300102,34.171 11.181722,21.9161 13.28397,-15.4937 -5.21688,-13.0518 8.39789,-11.4956 z"
       id="path7-1" />
    <path
       style="fill:#8c8cf6;fill-opacity:1;stroke-width:0.264583"
       d="m 129.59873,1533.9101 -8.08423,24.4726 4.88887,31.2469 6.26731,-21.7173 10.02692,27.9968 7.46943,-45.1977 z"
       id="path9-7" />
    <path
       style="fill:#8c8cf6;fill-opacity:1;stroke-width:0.264583"
       d="m 151.33723,1276.0024 c -2.09608,1.9099 -10.64065,32.1457 -10.64065,32.1457 l 7.25396,35.6524 15.20375,-37.806 z"
       id="path11-1" />
    <path
       style="fill:#8c8cf6;fill-opacity:1;stroke-width:0.264583"
       d="m 150.33642,1831.6601 -7.43602,21.4965 7.95648,19.3105 4.98403,-14.0313 8.88198,15.1378 6.23569,-23.5708 -18.21685,-18.6975 z"
       id="path12-5" />
    <path
       style="fill:#8c8cf6;fill-opacity:1;stroke-width:0.264583"
       d="m 45.305286,1408.6551 -7.43601,21.4965 7.956473,19.3107 4.984034,-14.0314 8.881978,15.1378 6.235688,-23.5708 -18.216843,-18.6974 z"
       id="path12-6-9" />
    <path
       style="fill:#c1c1fa;fill-opacity:1;stroke-width:0.264583"
       d="m 79.051176,1139.7831 -8.603745,18.7842 3.454475,7.0142 z"
       id="path13-7" />
    <path
       style="fill:#c1c1fa;fill-opacity:1;stroke-width:0.264583"
       d="m 78.897565,1189.2628 -4.1395,5.6375 3.919378,5.3724 z"
       id="path14-7" />
    <path
       style="fill:#c1c1fa;fill-opacity:1;stroke-width:0.264583"
       d="m 132.24468,1178.1372 -7.56332,10.6887 6.22136,0.063 z"
       id="path15-6" />
    <path
       style="fill:#c1c1fa;fill-opacity:1;stroke-width:0.264583"
       d="m 128.10678,1200.4622 -4.40882,4.4258 7.59838,1.1949 z"
       id="path16-7" />
    <path
       style="fill:#c1c1fa;fill-opacity:1;stroke-width:0.264583"
       d="m 151.25834,1282.827 -4.22753,13.7341 8.77163,-2.4193 z"
       id="path17-3" />
    <path
       style="fill:#c1c1fa;fill-opacity:1;stroke-width:0.264583"
       d="m 46.716373,1413.1152 -5.295101,17.3675 7.821483,-11.8673 z"
       id="path20-3" />
    <path
       style="fill:#c1c1fa;fill-opacity:1;stroke-width:0.264583"
       d="m 135.45764,1437.0039 -4.2132,7.9025 3.08087,3.0227 z"
       id="path21-9" />
    <path
       style="fill:#c1c1fa;fill-opacity:1;stroke-width:0.264583"
       d="m 107.09044,1473.6298 -14.564455,28.6183 16.714445,-22.4897 -1.70012,-6.0713 z"
       id="path22-4" />
    <path
       style="fill:#c1c1fa;fill-opacity:1;stroke-width:0.264583"
       d="m 103.65694,1512.5383 3.90393,-13.3096 3.52128,10.5876 z"
       id="path23-8" />
    <path
       style="fill:#c1c1fa;fill-opacity:1;stroke-width:0.264583"
       d="m 130.58921,1537.8105 -6.94902,21.1099 1.47047,10.3737 z"
       id="path24-1" />
    <path
       style="fill:#c1c1fa;fill-opacity:1;stroke-width:0.264583"
       d="m 135.3428,1569.2431 6.37822,19.651 -0.90858,-18.839 -4.81778,-0.6658 z"
       id="path25-2" />
    <path
       style="fill:#c1c1fa;fill-opacity:1;stroke-width:0.264583"
       d="m 60.446661,1567.118 -10.669477,20.0995 3.638359,8.5674 z"
       id="path26-9" />
    <path
       style="fill:#c1c1fa;fill-opacity:1;stroke-width:0.264583"
       d="m 57.19901,1614.6988 -2.56858,4.1636 5.79105,8.4155 z"
       id="path27-3" />
    <path
       style="fill:#c1c1fa;fill-opacity:1;stroke-width:0.264583"
       d="m 115.53863,1742.7818 -6.04282,18.2944 4.46391,5.7467 z"
       id="path30-8" />
    <path
       style="fill:#c1c1fa;fill-opacity:1;stroke-width:0.264583"
       d="m 122.16226,1772.9662 1.78678,3.3654 1.12918,-4.1936 z"
       id="path31-8" />
    <path
       style="fill:#c1c1fa;fill-opacity:1;stroke-width:0.264583"
       d="m 61.280329,1823.9738 -5.393613,12.1711 3.485084,7.6522 z"
       id="path32-5" />
    <path
       style="fill:#c1c1fa;fill-opacity:1;stroke-width:0.264583"
       d="m 57.673517,1850.3922 -3.087708,6.17 6.077374,17.9746 z"
       id="path33-0" />
    <path
       style="fill:#c1c1fa;fill-opacity:1;stroke-width:0.264583"
       d="m 152.36201,1833.6833 -6.32222,19.3112 3.7712,6.7151 z"
       id="path34-9" />
    <path
       style="fill:#c1c1fa;fill-opacity:1;stroke-width:0.264583"
       d="m 47.074228,1707.6133 8.557404,0.648 -6.020924,-9.6138 z"
       id="path35-6" />
    <path
       style="fill:#c1c1fa;fill-opacity:1;stroke-width:0.264583"
       d="m 53.05888,1434.1313 5.154999,8.0259 1.817404,-7.9799 z"
       id="path36-3" />
    <path
       style="fill:#8c8cf6;fill-opacity:1;stroke-width:0.264583"
       d="m 127.45703,2000.3123 -9.72903,13.143 -16.01482,5.4982 12.5867,12.0904 10.99039,21.4663 10.48256,-23.5265 -3.51508,-13.366 1.99438,-9.3407 z"
       id="path1-5-8"
       sodipodi:nodetypes="ccccccccc" />
    <path
       style="fill:#8c8cf6;fill-opacity:1;stroke-width:0.264583"
       d="m 155.54445,2450.8733 -13.93047,25.8329 9.62538,26.1535 -4.01931,6.6923 9.03952,12.0814 15.59454,-28.004 -14.70537,-40.5683 z"
       id="path2-4-5" />
    <path
       style="fill:#8c8cf6;fill-opacity:1;stroke-width:0.264583"
       d="m 118.96018,2562.8221 -9.09107,25.5562 7.00089,8.4055 -3.05776,5.2232 7.75752,7.746 3.9533,-6.7288 1.92173,3.1682 5.93844,-10.7524 z"
       id="path3-7-6" />
    <path
       style="fill:#8c8cf6;fill-opacity:1;stroke-width:0.264583"
       d="m 65.221021,2644.3505 -8.708354,18.7133 5.062979,10.3718 -7.059579,8.9554 9.314662,23.5103 16.745086,-24.9236 z"
       id="path4-4-1" />
    <path
       style="fill:#8c8cf6;fill-opacity:1;stroke-width:0.264583"
       d="m 155.0559,2221.1358 -4.91164,23.7103 7.171,18.493 7.68337,-17.6933 z"
       id="path5-4-1"
       sodipodi:nodetypes="ccccc" />
    <path
       style="fill:#8c8cf6;fill-opacity:1;stroke-width:0.264583"
       d="m 62.600622,1953.1291 -12.38371,32.3871 3.910758,19.3212 -0.881846,17.5996 8.843236,13.7575 22.094988,-31.4164 z"
       id="path6-0-9"
       sodipodi:nodetypes="ccccccc" />
    <path
       style="fill:#8c8cf6;fill-opacity:1;stroke-width:0.264583"
       d="m 100.65618,2294.4216 -16.029093,40.7266 29.615883,14.1535 6.80272,-19.2417 -9.5726,-10.2924 3.68731,-13.7504 z"
       id="path7-7-8"
       sodipodi:nodetypes="ccccccc" />
    <path
       style="fill:#8c8cf6;fill-opacity:1;stroke-width:0.264583"
       d="m 53.362996,2367.942 -17.085226,37.3696 18.849329,36.3553 12.171354,-41.2679 -13.059417,-14.7302 7.313308,-0.5621 z"
       id="path8-8-4"
       sodipodi:nodetypes="ccccccc" />
    <path
       style="fill:#8c8cf6;fill-opacity:1;stroke-width:0.264583"
       d="m 112.32584,2113.1334 c -2.09608,1.9101 -10.64065,32.1459 -10.64065,32.1459 l 7.25396,35.6521 21.91466,-36.7799 z"
       id="path11-8-0"
       sodipodi:nodetypes="ccccc" />
    <path
       style="fill:#8c8cf6;fill-opacity:1;stroke-width:0.264583"
       d="m 154.23028,2658.4263 -7.43601,21.4965 7.95647,19.3107 4.98403,-14.0313 8.88198,15.1377 6.23569,-23.5708 -18.21684,-18.6974 z"
       id="path12-4-3" />
    <path
       style="fill:#8c8cf6;fill-opacity:1;stroke-width:0.264583"
       d="m 49.199152,2235.4214 -7.436012,21.4965 7.956473,19.3106 1.170561,-19.8197 12.695451,20.9262 6.23569,-23.5708 -18.216844,-18.6974 z"
       id="path12-6-3-0"
       sodipodi:nodetypes="cccccccc" />
    <path
       style="fill:#c1c1fa;fill-opacity:1;stroke-width:0.264583"
       d="m 61.649046,1968.686 -8.603743,18.7843 3.454475,7.014 z"
       id="path13-1-4" />
    <path
       style="fill:#c1c1fa;fill-opacity:1;stroke-width:0.264583"
       d="m 61.495437,2018.1656 -4.1395,5.6375 3.919379,5.3724 z"
       id="path14-4-4" />
    <path
       style="fill:#c1c1fa;fill-opacity:1;stroke-width:0.264583"
       d="m 128.08448,2004.7748 -7.56333,10.6887 6.22135,0.064 z"
       id="path15-9-4" />
    <path
       style="fill:#c1c1fa;fill-opacity:1;stroke-width:0.264583"
       d="m 123.94657,2027.0999 -4.40881,4.4257 7.59837,1.1949 z"
       id="path16-2-4" />
    <path
       style="fill:#c1c1fa;fill-opacity:1;stroke-width:0.264583"
       d="m 112.24695,2119.9582 -4.22754,13.7341 8.77165,-2.4195 z"
       id="path17-0-7" />
    <path
       style="fill:#c1c1fa;fill-opacity:1;stroke-width:0.264583"
       d="m 50.610238,2239.8815 -5.295102,17.3675 7.821482,-11.8672 z"
       id="path20-9-1" />
    <path
       style="fill:#c1c1fa;fill-opacity:1;stroke-width:0.264583"
       d="m 157.73414,2237.751 -4.21319,7.9024 3.08086,3.0227 z"
       id="path21-2-7" />
    <path
       style="fill:#c1c1fa;fill-opacity:1;stroke-width:0.264583"
       d="m 101.75707,2298.4708 -3.264091,31.9449 7.479501,-27.004 -3.77517,-5.0497 z"
       id="path22-6-5" />
    <path
       style="fill:#c1c1fa;fill-opacity:1;stroke-width:0.264583"
       d="m 112.58584,2335.9994 -1.15848,-13.8217 7.10245,8.6052 z"
       id="path23-6-9" />
    <path
       style="fill:#c1c1fa;fill-opacity:1;stroke-width:0.264583"
       d="m 155.63702,2457.6826 -10.66948,20.0997 3.63836,8.5674 z"
       id="path26-5-1" />
    <path
       style="fill:#c1c1fa;fill-opacity:1;stroke-width:0.264583"
       d="m 152.38937,2505.2634 -2.56858,4.1638 5.79105,8.4154 z"
       id="path27-0-7" />
    <path
       style="fill:#c1c1fa;fill-opacity:1;stroke-width:0.264583"
       d="m 53.280559,2374.9111 -14.009366,31.1802 3.49884,6.3346 z"
       id="path28-4-8" />
    <path
       style="fill:#c1c1fa;fill-opacity:1;stroke-width:0.264583"
       d="m 58.698433,2399.5212 2.633934,10.659 2.938717,-8.6612 z"
       id="path29-8-5" />
    <path
       style="fill:#c1c1fa;fill-opacity:1;stroke-width:0.264583"
       d="m 119.4325,2569.5481 -6.04283,18.2945 4.46391,5.7466 z"
       id="path30-7-7" />
    <path
       style="fill:#c1c1fa;fill-opacity:1;stroke-width:0.264583"
       d="m 126.05612,2599.7325 1.78679,3.3655 1.12918,-4.1937 z"
       id="path31-1-4" />
    <path
       style="fill:#c1c1fa;fill-opacity:1;stroke-width:0.264583"
       d="m 65.174205,2650.7401 -5.393626,12.1711 3.485083,7.6521 z"
       id="path32-7-1" />
    <path
       style="fill:#c1c1fa;fill-opacity:1;stroke-width:0.264583"
       d="m 61.567381,2677.1586 -3.08771,6.17 6.077377,17.9745 z"
       id="path33-2-8" />
    <path
       style="fill:#c1c1fa;fill-opacity:1;stroke-width:0.264583"
       d="m 156.25587,2660.4496 -6.32221,19.3112 3.7712,6.7151 z"
       id="path34-7-5" />
    <path
       style="fill:#c1c1fa;fill-opacity:1;stroke-width:0.264583"
       d="m 56.952743,2260.8977 5.155,8.0258 1.817404,-7.9798 z"
       id="path36-2-7" />
  </g>
</svg>
