<?xml version="1.0" encoding="UTF-8" standalone="no"?>
<!-- Created with Inkscape (http://www.inkscape.org/) -->

<svg
   width="113.35381mm"
   height="52.399391mm"
   viewBox="0 0 113.35381 52.399391"
   version="1.1"
   id="svg1"
   inkscape:version="1.3.1 (9b9bdc1480, 2023-11-25, custom)"
   sodipodi:docname="cloud.svg"
   xmlns:inkscape="http://www.inkscape.org/namespaces/inkscape"
   xmlns:sodipodi="http://sodipodi.sourceforge.net/DTD/sodipodi-0.dtd"
   xmlns="http://www.w3.org/2000/svg"
   xmlns:svg="http://www.w3.org/2000/svg">
  <sodipodi:namedview
     id="namedview1"
     pagecolor="#505050"
     bordercolor="#eeeeee"
     borderopacity="1"
     inkscape:showpageshadow="0"
     inkscape:pageopacity="0"
     inkscape:pagecheckerboard="0"
     inkscape:deskcolor="#505050"
     inkscape:document-units="mm"
     inkscape:zoom="1.0620589"
     inkscape:cx="259.40181"
     inkscape:cy="169.01134"
     inkscape:window-width="1920"
     inkscape:window-height="1011"
     inkscape:window-x="1920"
     inkscape:window-y="32"
     inkscape:window-maximized="1"
     inkscape:current-layer="layer1" />
  <defs
     id="defs1" />
  <g
     inkscape:label="Layer 1"
     inkscape:groupmode="layer"
     id="layer1"
     transform="translate(-4.8101765,-125.06836)">
    <path
       id="path25"
       style="fill:#c1c1fa;stroke:none;stroke-width:0.279309"
       d="m 61.188643,125.06836 a 25.026524,23.302824 0 0 0 -17.553963,6.77685 7.5187416,7.4985285 0 0 0 -5.014681,-1.91255 7.5187416,7.4985285 0 0 0 -7.029546,4.89273 12.787504,12.287848 0 0 0 -4.336169,-0.72864 12.787504,12.287848 0 0 0 -12.18737,8.61343 11.558956,10.687367 0 0 0 -10.2567375,10.60142 11.558956,10.687367 0 0 0 8.1524735,10.20248 8.37813,7.7031608 0 0 0 7.856368,5.08289 8.37813,7.7031608 0 0 0 1.604553,-0.16123 11.997195,12.078346 0 0 0 9.911023,5.3051 11.997195,12.078346 0 0 0 7.693071,-2.8267 11.946563,11.064399 0 0 0 10.629838,6.0663 11.946563,11.064399 0 0 0 7.75095,-2.65255 8.0424595,8.1665869 0 0 0 6.31538,3.13986 8.0424595,8.1665869 0 0 0 6.66419,-3.61374 11.75449,10.03282 0 0 0 7.61969,2.40037 11.75449,10.03282 0 0 0 10.284132,-5.22707 9.8128071,8.579258 0 0 0 4.63486,1.04232 9.8128071,8.579258 0 0 0 9.492445,-6.47299 11.220876,10.524148 0 0 0 3.52433,0.55345 11.220876,10.524148 0 0 0 11.22051,-10.52442 11.220876,10.524148 0 0 0 -9.91154,-10.44898 9.5644445,9.3835735 0 0 0 -8.382445,-4.86947 9.5644445,9.3835735 0 0 0 -2.29185,0.29404 11.164647,11.436634 0 0 0 -10.4159,-7.32875 11.164647,11.436634 0 0 0 -0.69608,0.0512 6.7072606,6.2715654 0 0 0 -6.492632,-4.70152 6.7072606,6.2715654 0 0 0 -3.77909,1.10277 25.026524,23.302824 0 0 0 -15.00581,-4.65656 z" />
    <path
       style="fill:#a4a4ed;fill-opacity:1;stroke:none;stroke-width:0.264583"
       d="m 18.837788,144.15847 c 0,0 1.502061,-7.4983 13.138867,-6.45955 11.636806,1.03875 -13.138867,6.45955 -13.138867,6.45955 z"
       id="path40" />
    <path
       style="fill:#a4a4ed;fill-opacity:1;stroke:none;stroke-width:0.264583"
       d="m 105.84085,148.69461 c 0,0 6.28972,1.85691 4.3863,6.79989 -1.90343,4.94298 -4.3863,-6.79989 -4.3863,-6.79989 z"
       id="path41" />
    <path
       style="fill:#a4a4ed;fill-opacity:1;stroke:none;stroke-width:0.264583"
       d="m 13.949612,159.02193 c 0,0 0.532245,5.9427 4.614615,6.27618 4.08237,0.33347 -4.614615,-6.27618 -4.614615,-6.27618 z"
       id="path42" />
    <path
       style="fill:#a4a4ed;fill-opacity:1;stroke:none;stroke-width:0.264583"
       d="m 50.528823,131.00615 c 0,0 10.38933,-6.78989 21.607285,-0.67707 11.217957,6.11281 -25.074938,5.23526 -21.607285,0.67707 z"
       id="path43" />
    <path
       style="fill:#a4a4ed;fill-opacity:1;stroke:none;stroke-width:0.264583"
       d="m 43.225127,171.05713 c 0,0 5.638353,5.51545 12.543308,2.02911 6.904953,-3.48635 -12.543308,-2.02911 -12.543308,-2.02911 z"
       id="path44" />
    <path
       style="fill:#a4a4ed;fill-opacity:1;stroke:none;stroke-width:0.264583"
       d="m 72.083072,170.82534 c 0,0 9.966838,8.14898 14.577713,-0.77829 4.610873,-8.92728 -14.577713,0.77829 -14.577713,0.77829 z"
       id="path45" />
    <path
       style="fill:#a4a4ed;fill-opacity:1;stroke:none;stroke-width:0.264583"
       d="m 87.825933,135.81109 c 0,0 6.887269,0.38071 7.02921,3.79377 0.141941,3.41306 -7.02921,-3.79377 -7.02921,-3.79377 z"
       id="path46" />
    <path
       style="fill:#a4a4ed;fill-opacity:1;stroke:none;stroke-width:0.264583"
       d="m 93.816023,168.23407 6.736527,-4.6912 c 0,0 0.10356,6.63089 -6.736527,4.6912 z"
       id="path47" />
    <path
       style="fill:#a4a4ed;fill-opacity:1;stroke:none;stroke-width:0.264583"
       d="m 10.14883,157.9928 c 0,0 -6.919823,-6.99604 0.429424,-10.76564 7.349248,-3.76959 -0.429424,10.76564 -0.429424,10.76564 z"
       id="path48" />
  </g>
</svg>
