<?xml version="1.0" encoding="UTF-8" standalone="no"?>
<!-- Created with Inkscape (http://www.inkscape.org/) -->

<svg
   width="205.49956mm"
   height="49.892422mm"
   viewBox="0 0 205.49956 49.892422"
   version="1.1"
   id="svg1"
   sodipodi:docname="icechoose.svg"
   inkscape:version="1.3.1 (9b9bdc1480, 2023-11-25, custom)"
   xmlns:inkscape="http://www.inkscape.org/namespaces/inkscape"
   xmlns:sodipodi="http://sodipodi.sourceforge.net/DTD/sodipodi-0.dtd"
   xmlns="http://www.w3.org/2000/svg"
   xmlns:svg="http://www.w3.org/2000/svg">
  <sodipodi:namedview
     id="namedview1"
     pagecolor="#505050"
     bordercolor="#eeeeee"
     borderopacity="1"
     inkscape:showpageshadow="0"
     inkscape:pageopacity="0"
     inkscape:pagecheckerboard="0"
     inkscape:deskcolor="#505050"
     inkscape:document-units="mm"
     inkscape:zoom="0.79697049"
     inkscape:cx="331.25442"
     inkscape:cy="126.10254"
     inkscape:window-width="1920"
     inkscape:window-height="1011"
     inkscape:window-x="1920"
     inkscape:window-y="32"
     inkscape:window-maximized="1"
     inkscape:current-layer="svg1" />
  <defs
     id="defs1" />
  <g
     id="layer1"
     transform="translate(0.53354818,-132.01626)"
     style="fill:#8c8cf6;fill-opacity:1">
    <path
       style="fill:#8c8cf6;fill-opacity:1;stroke-width:0.302355"
       d="m 2.8658456,161.02641 21.9005444,-11.15067 -6.011031,-4.78804 63.099626,-13.07144 15.266093,3.68103 79.943872,0.0827 14.1241,8.83987 -0.80254,10.01148 14.5795,8.28429 -67.6188,18.99305 -73.351752,-0.23032 6.046867,-3.98404 -70.57587318,-10.16075 13.97882318,-4.4705 z"
       id="path1" />
    <path
       style="fill:#8c8cf6;fill-opacity:1;stroke-width:0.264583"
       d="m 37.981452,144.33008 28.06207,-5.65057 16.343392,-4.00514 -9.965042,6.14524 -12.772482,4.54904 -3.792202,-2.77541 -12.662397,3.79029 z"
       id="path2" />
    <path
       style="fill:#8c8cf6;fill-opacity:1;stroke-width:0.264583"
       d="m 84.136454,135.8096 -0.432946,5.66928 9.828408,-4.40686 z"
       id="path3" />
    <path
       style="fill:#8c8cf6;fill-opacity:1;stroke-width:0.264583"
       d="m 176.40186,137.64989 12.0599,7.93637 -0.56129,7.33371 -3.9983,-6.65906 z"
       id="path4" />
    <path
       style="fill:#8c8cf6;fill-opacity:1;stroke-width:0.264583"
       d="m 72.873866,179.67151 5.534152,-4.86931 60.597952,1.70565 z"
       id="path5" />
    <path
       style="fill:#8c8cf6;fill-opacity:1;stroke-width:0.264583"
       d="m 23.241262,154.85803 -10.148825,5.16868 7.066235,0.21044 z"
       id="path6" />
    <path
       style="fill:#8c8cf6;fill-opacity:1;stroke-width:0.264583"
       d="m 80.436179,138.57883 -6.773653,9.14436 6.465154,-3.11844 z"
       id="path7" />
    <path
       style="fill:#8c8cf6;fill-opacity:1;stroke-width:0.264583"
       d="m 101.69293,138.07086 49.44391,4.74953 19.97078,-4.78861 z"
       id="path8" />
    <path
       style="fill:#8c8cf6;fill-opacity:1;stroke-width:0.264583"
       d="m 14.245251,166.06421 -5.0615131,0.966 7.4996491,1.15331 z"
       id="path9" />
    <path
       style="fill:#8c8cf6;fill-opacity:1;stroke-width:0.264583"
       d="m 192.6112,159.90384 -7.14701,5.08885 11.43267,-2.07693 z"
       id="path10" />
  </g>
  <path
     style="fill:#c1c1fa;fill-opacity:1;stroke-width:0.264583"
     d="M 30.659337,14.021338 82.241595,3.2503469 86.787441,6.4463538 67.708642,13.517365 64.798452,9.8380795 35.535629,19.368838 37.268467,15.041607 Z"
     id="path14" />
  <path
     style="fill:#c1c1fa;fill-opacity:1;stroke-width:0.264583"
     d="m 186.1825,26.690066 -18.13901,9.454282 26.62961,-6.220942 z"
     id="path15" />
  <path
     style="fill:#c1c1fa;fill-opacity:1;stroke-width:0.264583"
     d="m 176.79973,7.8426335 10.23832,6.1651915 -0.79709,8.411247 z"
     id="path16" />
  <path
     style="fill:#c1c1fa;fill-opacity:1;stroke-width:0.264583"
     d="m 73.418974,47.990159 4.186124,-4.690068 55.523262,3.349556 z"
     id="path17" />
  <path
     style="fill:#c1c1fa;fill-opacity:1;stroke-width:0.264583"
     d="m 21.519095,23.575441 -10.503277,3.372824 6.176453,1.783926 z"
     id="path18" />
  <path
     style="fill:#c1c1fa;fill-opacity:1;stroke-width:0.264583"
     d="m 15.041926,32.090931 -5.2810681,2.56113 7.0087951,0.894696 z"
     id="path19" />
</svg>
